<svg width="46" height="46" viewBox="0 0 46 46" fill="none" xmlns="http://www.w3.org/2000/svg">
<g clip-path="url(#clip0_1241_3214)">
<path d="M44.6523 33.8711H44.4727V32.1641C44.4727 30.2755 43.1709 28.6858 41.4177 28.2437C42.5297 25.7191 43.125 22.9499 43.125 20.125C43.125 9.00225 34.1243 0 23 0C10.369 0 0.932398 11.4505 3.2112 23.7892C3.21883 23.8477 3.22889 23.9053 3.24363 23.961C3.52888 25.434 3.97792 26.8715 4.5823 28.2437C2.82909 28.6858 1.52734 30.2755 1.52734 32.1641V33.8711H1.34766C0.603391 33.8711 0 34.4745 0 35.2188V40.9688C0 41.713 0.603391 42.3164 1.34766 42.3164H18.3019C18.8294 44.4644 20.769 46 23 46C25.231 46 27.1706 44.4645 27.6981 42.3164H44.6523C45.3966 42.3164 46 41.713 46 40.9688V35.2188C46 34.4745 45.3966 33.8711 44.6523 33.8711ZM41.7773 33.8711H28.2056C26.845 33.8711 25.5325 34.1827 24.3477 34.7692V32.2597C24.3477 30.2749 25.9624 28.6602 27.9472 28.6602C28.6611 28.6602 29.092 28.8471 29.849 29.0994C33.2596 30.2363 36.8291 30.8164 40.4297 30.8164C41.1728 30.8164 41.7773 31.421 41.7773 32.1641V33.8711ZM40.4282 20.2148H38.7227C38.3008 20.2148 37.8977 20.0133 37.6445 19.6758L37.2206 19.1106C36.366 17.971 34.9558 17.3606 33.5398 17.5181L29.8888 17.9237C29.4797 17.9691 29.078 17.8283 28.7869 17.5372L27.6716 16.4219C27.219 15.9692 27.1482 15.254 27.5032 14.7214L28.0593 13.8873C29.0401 12.416 28.9569 10.4998 27.8524 9.11914L27.6286 8.83937C27.2172 8.3251 27.236 7.59458 27.6736 7.10233L30.204 4.255C36.3343 7.04887 40.4641 13.2156 40.4282 20.2148ZM27.4678 3.27669L25.659 5.31183C24.3465 6.78868 24.2897 8.98033 25.5239 10.5231L25.7477 10.8029C26.1159 11.2632 26.1436 11.9019 25.8167 12.3923L25.2606 13.2264C24.1953 14.8244 24.4077 16.9699 25.7657 18.3279L26.8811 19.4432C27.7543 20.3164 28.9589 20.7389 30.1863 20.6026L33.8375 20.197C34.3089 20.1444 34.7794 20.3478 35.0644 20.7278L35.4883 21.293C36.2477 22.3056 37.4568 22.9102 38.7227 22.9102H40.2057C39.9161 24.7046 39.3467 26.4447 38.5192 28.0615C35.8602 27.8967 33.2383 27.388 30.7014 26.5424L29.9378 26.2878C27.4513 25.4588 24.673 26.2487 23 28.3743C21.3266 26.2481 18.5481 25.4592 16.0623 26.2877L15.2986 26.5423C12.7618 27.3879 10.1399 27.8966 7.48084 28.0614C6.95696 27.0378 6.53721 25.9648 6.22617 24.8597L12.8281 24.4469C14.3372 24.3526 15.6562 23.4356 16.2703 22.0539L17.637 18.9788C18.3499 17.3748 17.9794 15.3888 16.4278 14.1475C15.8777 13.7075 15.7577 12.9336 16.1484 12.3476L16.3517 12.0427C17.4642 10.3738 17.1726 8.11055 15.6736 6.77817L13.942 5.23897C18.0815 2.71077 22.986 2.08725 27.4678 3.27669ZM11.7077 6.85948L13.8829 8.79292C14.3826 9.23702 14.4798 9.99143 14.1089 10.5477L13.9057 10.8526C12.7712 12.5542 13.0265 14.8798 14.7843 16.2845C15.2624 16.6669 15.4226 17.3247 15.174 17.8841L13.8073 20.9592C13.6025 21.4197 13.1629 21.7255 12.6599 21.7569L5.6952 22.1923C4.99136 16.2843 7.32119 10.5991 11.7077 6.85948ZM4.22266 32.1641C4.22266 31.421 4.82721 30.8164 5.57031 30.8164C6.06131 30.8164 6.67189 30.7984 6.76407 30.794C9.95882 30.6806 13.111 30.1128 16.1509 29.0994C16.8996 28.8498 17.3403 28.6602 18.0528 28.6602C20.0376 28.6602 21.6523 30.2749 21.6523 32.2597V34.7691C20.4675 34.1826 19.155 33.871 17.7944 33.871H4.22266V32.1641ZM43.3047 39.6211H27.4718C26.3197 39.6211 25.3235 40.4418 25.1029 41.5725C24.907 42.5762 24.0226 43.3047 23 43.3047C21.9774 43.3047 21.093 42.5762 20.8971 41.5725C20.6765 40.4418 19.6803 39.6211 18.5282 39.6211H2.69531V36.5664H17.7944C19.4008 36.5664 20.911 37.192 22.047 38.328C22.5733 38.8542 23.4266 38.8543 23.9529 38.328C25.0889 37.192 26.5992 36.5664 28.2056 36.5664H43.3047V39.6211Z" fill="#AB1F24"/>
</g>
<defs>
<clipPath id="clip0_1241_3214">
<rect width="46" height="46" fill="white"/>
</clipPath>
</defs>
</svg>
