<svg width="46" height="46" viewBox="0 0 46 46" fill="none" xmlns="http://www.w3.org/2000/svg">
<g clip-path="url(#clip0_1241_3650)">
<path d="M10.332 32.9727H1.34766V39.2617H10.332V32.9727Z" stroke="#AB1F24" stroke-width="2.69531" stroke-miterlimit="10" stroke-linecap="round" stroke-linejoin="round"/>
<path d="M1.34766 44.6523H10.332" stroke="#AB1F24" stroke-width="2.69531" stroke-miterlimit="10" stroke-linecap="round" stroke-linejoin="round"/>
<path d="M27.4922 32.9727H18.5078V39.2617H27.4922V32.9727Z" stroke="#AB1F24" stroke-width="2.69531" stroke-miterlimit="10" stroke-linecap="round" stroke-linejoin="round"/>
<path d="M18.5078 44.6523H27.4922" stroke="#AB1F24" stroke-width="2.69531" stroke-miterlimit="10" stroke-linecap="round" stroke-linejoin="round"/>
<path d="M44.6523 32.9727H35.668V39.2617H44.6523V32.9727Z" stroke="#AB1F24" stroke-width="2.69531" stroke-miterlimit="10" stroke-linecap="round" stroke-linejoin="round"/>
<path d="M35.668 44.6523H44.6523" stroke="#AB1F24" stroke-width="2.69531" stroke-miterlimit="10" stroke-linecap="round" stroke-linejoin="round"/>
<path d="M9.11938 14.2509C9.43069 12.1884 10.1573 10.2634 11.2106 8.56076C11.6307 7.87993 12.1044 7.23539 12.6238 6.63191C15.4111 3.39591 19.538 1.34766 24.1434 1.34766C29.7848 1.34766 34.7072 4.42049 37.3293 8.98473C37.6339 9.51472 37.907 10.0647 38.1467 10.6328" stroke="#AB1F24" stroke-width="2.69531" stroke-miterlimit="10" stroke-linecap="round" stroke-linejoin="round"/>
<path d="M9.47654 24.6313C4.98768 24.6313 1.34766 20.9923 1.34766 16.5034C1.34766 12.0145 4.98768 8.37451 9.47654 8.37451C10.0714 8.37451 10.652 8.43848 11.2106 8.56076" stroke="#AB1F24" stroke-width="2.69531" stroke-miterlimit="10" stroke-linecap="round" stroke-linejoin="round"/>
<path d="M30.8152 16.0423C31.5313 12.9333 34.3168 10.6147 37.6445 10.6147C37.8135 10.6147 37.9806 10.6205 38.1467 10.6329C41.782 10.8898 44.6523 13.9215 44.6523 17.6226C44.6523 21.4937 41.5146 24.6314 37.6445 24.6314" stroke="#AB1F24" stroke-width="2.69531" stroke-miterlimit="10" stroke-linecap="round" stroke-linejoin="round"/>
<path d="M37.6444 24.6314L9.47607 24.6313" stroke="#AB1F24" stroke-width="2.69531" stroke-miterlimit="10" stroke-linecap="round" stroke-linejoin="round"/>
<path d="M23 32.6486V24.9819" stroke="#AB1F24" stroke-width="2.69531" stroke-miterlimit="10" stroke-linecap="round" stroke-linejoin="round"/>
<path d="M40.1602 32.6489V24.2593" stroke="#AB1F24" stroke-width="2.69531" stroke-miterlimit="10" stroke-linecap="round" stroke-linejoin="round"/>
<path d="M5.83984 32.6488V24.0142" stroke="#AB1F24" stroke-width="2.69531" stroke-miterlimit="10" stroke-linecap="round" stroke-linejoin="round"/>
</g>
<defs>
<clipPath id="clip0_1241_3650">
<rect width="46" height="46" fill="white"/>
</clipPath>
</defs>
</svg>
