<svg width="46" height="46" viewBox="0 0 46 46" fill="none" xmlns="http://www.w3.org/2000/svg">
<g clip-path="url(#clip0_1241_3202)">
<path d="M6.82812 36.4766H1.34766V17.6094H9.43359" stroke="#AB1F24" stroke-width="2.69531" stroke-miterlimit="10" stroke-linecap="round" stroke-linejoin="round"/>
<path d="M36.5664 17.6094H44.6523V36.4766H39.1719" stroke="#AB1F24" stroke-width="2.69531" stroke-miterlimit="10" stroke-linecap="round" stroke-linejoin="round"/>
<path d="M23 9.52344C30.4532 9.52344 36.4952 7.69323 36.4952 5.43555C36.4952 3.17787 30.4532 1.34766 23 1.34766C15.5469 1.34766 9.50488 3.17787 9.50488 5.43555C9.50488 7.69323 15.5469 9.52344 23 9.52344Z" stroke="#AB1F24" stroke-width="2.69531" stroke-miterlimit="10" stroke-linecap="round" stroke-linejoin="round"/>
<path d="M36.4869 13.9707C36.4869 16.2284 30.4486 18.0586 23.0001 18.0586C15.5516 18.0586 9.51343 16.2284 9.51343 13.9707" stroke="#AB1F24" stroke-width="2.69531" stroke-miterlimit="10" stroke-linecap="round" stroke-linejoin="round"/>
<path d="M9.50464 5.48047V22.5283C9.50464 23.9505 11.9026 25.194 15.5403 25.9199" stroke="#AB1F24" stroke-width="2.69531" stroke-miterlimit="10" stroke-linecap="round" stroke-linejoin="round"/>
<path d="M36.4954 5.48047V22.5283C36.4954 23.9505 34.0975 25.194 30.4597 25.9199" stroke="#AB1F24" stroke-width="2.69531" stroke-miterlimit="10" stroke-linecap="round" stroke-linejoin="round"/>
<path d="M26.3561 44.6526L30.4595 42.2835L29.8294 40.364C29.3284 38.8378 30.2652 37.2149 31.8373 36.8854L33.8155 36.4708V31.7326L31.8377 31.318C30.2658 30.9884 29.3291 29.3659 29.8296 27.8399L30.4594 25.9199L26.356 23.5508L25.0081 25.0563C23.9368 26.2528 22.0633 26.2528 20.992 25.0563L19.6441 23.5508L15.5407 25.9199L16.1707 27.8404C16.6714 29.3666 15.7344 30.9893 14.1622 31.3186L12.1848 31.7327V36.4709L14.1626 36.885C15.735 37.2143 16.6721 38.8373 16.171 40.3637L15.5408 42.2836L19.6441 44.6526L20.9917 43.1469C22.063 41.9498 23.9371 41.9498 25.0085 43.1469L26.3561 44.6526Z" stroke="#AB1F24" stroke-width="2.69531" stroke-miterlimit="10" stroke-linecap="round" stroke-linejoin="round"/>
<path d="M23.011 36.7969C24.4996 36.7969 25.7063 35.5901 25.7063 34.1016C25.7063 32.613 24.4996 31.4062 23.011 31.4062C21.5224 31.4062 20.3157 32.613 20.3157 34.1016C20.3157 35.5901 21.5224 36.7969 23.011 36.7969Z" stroke="#AB1F24" stroke-width="2.69531" stroke-miterlimit="10" stroke-linecap="round" stroke-linejoin="round"/>
</g>
<defs>
<clipPath id="clip0_1241_3202">
<rect width="46" height="46" fill="white"/>
</clipPath>
</defs>
</svg>
