<svg width="46" height="46" viewBox="0 0 46 46" fill="none" xmlns="http://www.w3.org/2000/svg">
<path d="M31.0879 23.1797H38.004" stroke="#AB1F24" stroke-width="2.6953" stroke-miterlimit="22.9256" stroke-linecap="round" stroke-linejoin="round"/>
<path d="M44.6523 20.8438H39.2617V26.2344H44.6523V20.8438Z" stroke="#AB1F24" stroke-width="2.6953" stroke-miterlimit="22.9256" stroke-linecap="round" stroke-linejoin="round"/>
<path d="M44.6523 9.52344H39.2617V14.9141H44.6523V9.52344Z" stroke="#AB1F24" stroke-width="2.6953" stroke-miterlimit="22.9256" stroke-linecap="round" stroke-linejoin="round"/>
<path d="M44.6523 32.1641H39.2617V37.5547H44.6523V32.1641Z" stroke="#AB1F24" stroke-width="2.6953" stroke-miterlimit="22.9256" stroke-linecap="round" stroke-linejoin="round"/>
<path d="M31.3174 12.2188H38.0041" stroke="#AB1F24" stroke-width="2.6953" stroke-miterlimit="22.9256" stroke-linecap="round" stroke-linejoin="round"/>
<path d="M31.3174 34.8594H38.0041" stroke="#AB1F24" stroke-width="2.6953" stroke-miterlimit="22.9256" stroke-linecap="round" stroke-linejoin="round"/>
<path d="M30.7264 28.4155V37.2615C30.7264 37.4559 30.7264 37.581 30.7264 37.9077C30.7264 40.9283 24.1516 43.3769 16.0411 43.3769C7.93057 43.3769 1.35571 40.9282 1.35571 37.9077C1.35571 37.5812 1.3558 37.5471 1.3558 37.2615V28.4155" stroke="#AB1F24" stroke-width="2.6953" stroke-miterlimit="22.9256" stroke-linecap="round" stroke-linejoin="round"/>
<path d="M30.7264 18.4883V27.3343C30.7264 27.5286 30.7264 27.6538 30.7264 27.9805C30.7264 31.0011 24.1516 33.4498 16.0411 33.4498C7.93057 33.4498 1.35571 31.0011 1.35571 27.9805C1.35571 27.654 1.3558 27.6198 1.3558 27.3343V18.4883" stroke="#AB1F24" stroke-width="2.6953" stroke-miterlimit="22.9256" stroke-linecap="round" stroke-linejoin="round"/>
<path d="M30.7264 8.51953V17.3655C30.7264 17.5599 30.7264 17.685 30.7264 18.0117C30.7264 21.0323 24.1516 23.481 16.0411 23.481C7.93057 23.481 1.35571 21.0323 1.35571 18.0117C1.35571 17.6852 1.3558 17.6511 1.3558 17.3655V8.51953" stroke="#AB1F24" stroke-width="2.6953" stroke-miterlimit="22.9256" stroke-linecap="round" stroke-linejoin="round"/>
<path d="M16.033 13.5617C24.1435 13.5617 30.7183 11.113 30.7183 8.09237C30.7183 5.07175 24.1435 2.62305 16.033 2.62305C7.9225 2.62305 1.34766 5.07175 1.34766 8.09237C1.34766 11.113 7.9225 13.5617 16.033 13.5617Z" stroke="#AB1F24" stroke-width="2.6953" stroke-miterlimit="22.9256" stroke-linecap="round" stroke-linejoin="round"/>
</svg>
