<svg width="46" height="46" viewBox="0 0 46 46" fill="none" xmlns="http://www.w3.org/2000/svg">
<g clip-path="url(#clip0_1241_3112)">
<path d="M43.3047 21.9742V11.5551L45.124 10.8757C45.649 10.6798 45.9979 10.179 46 9.61819C46.0021 9.05737 45.6568 8.5541 45.1331 8.35406L23.4808 0.0884399C23.1713 -0.02948 22.8291 -0.02948 22.5195 0.0884399L0.867212 8.35406C0.343241 8.5541 -0.00209614 9.05737 9.57612e-06 9.61819C0.00211529 10.1787 0.350962 10.6795 0.876337 10.8757L10.8711 14.6084V20.3945C10.8711 22.3714 12.257 24.1532 14.7737 25.4117C16.9935 26.5214 19.9151 27.1328 23 27.1328C26.0849 27.1328 29.0065 26.5214 31.2263 25.4117C33.743 24.1532 35.1289 22.3714 35.1289 20.3945V14.6084L40.6094 12.5616V21.9742C39.041 22.5304 37.9141 24.0283 37.9141 25.7851C37.9141 28.0144 39.7278 29.8281 41.957 29.8281C44.1863 29.8281 46 28.0144 46 25.7851C46 24.0283 44.8734 22.5304 43.3047 21.9742ZM23 2.79007L40.8375 9.59959C40.0619 9.88912 23.7784 15.9701 23 16.2607C22.2216 15.9701 5.93812 9.88912 5.16286 9.59959L23 2.79007ZM32.4336 20.3945C32.4336 22.303 28.3994 24.4375 23 24.4375C17.6006 24.4375 13.5664 22.303 13.5664 20.3945V15.6149L22.5287 18.9616C22.6806 19.0184 22.8403 19.0469 23 19.0469C23.1597 19.0469 23.3194 19.0184 23.4717 18.9616L32.4336 15.6149V20.3945ZM41.957 27.1328C41.2141 27.1328 40.6094 26.5281 40.6094 25.7851C40.6094 25.0422 41.2141 24.4375 41.957 24.4375C42.7 24.4375 43.3047 25.0422 43.3047 25.7851C43.3047 26.5281 42.7003 27.1328 41.957 27.1328Z" fill="#AB1F24"/>
<path d="M41.957 32.5415H4.04297C1.33292 32.5415 0 36.1002 0 39.2619C0 42.824 1.54945 46.0002 4.04297 46.0002H41.957C44.441 46.0002 46 42.8405 46 39.2619C46 37.617 45.669 36.0493 45.0682 34.8476C44.3189 33.349 43.2141 32.5415 41.957 32.5415ZM27.043 39.2619C27.043 41.8905 26.0098 43.3227 25.6953 43.3227H23.5868C24.0788 42.1779 24.3476 40.7425 24.3476 39.2619C24.3476 37.7812 24.0788 36.3637 23.5868 35.2189H25.6953C25.9929 35.2189 27.043 36.5901 27.043 39.2619ZM7.32507 43.3227C7.8171 42.1779 8.08593 40.7425 8.08593 39.2619C8.08593 37.7812 7.8171 36.3637 7.32507 35.2189H20.3047C20.603 35.2189 21.6523 36.5918 21.6523 39.2619C21.6523 41.8852 20.6216 43.3227 20.3047 43.3227H7.32507ZM4.04297 35.2189C4.34128 35.2189 5.39062 36.5918 5.39062 39.2619C5.39062 41.8852 4.35988 43.3048 4.04297 43.3048C3.74466 43.3048 2.69531 41.9319 2.69531 39.2619C2.69531 36.6385 3.72606 35.2189 4.04297 35.2189ZM41.957 43.3227H28.9778C29.4694 42.1779 29.7383 40.7425 29.7383 39.2619C29.7383 37.7812 29.4694 36.3637 28.9774 35.2189H41.957C42.2546 35.2189 43.3047 36.5901 43.3047 39.2619C43.3047 41.8905 42.2715 43.3227 41.957 43.3227Z" fill="#AB1F24"/>
</g>
<defs>
<clipPath id="clip0_1241_3112">
<rect width="46" height="46" fill="white"/>
</clipPath>
</defs>
</svg>
