<svg width="46" height="46" viewBox="0 0 46 46" fill="none" xmlns="http://www.w3.org/2000/svg">
<g clip-path="url(#clip0_1241_3079)">
<path d="M45.3056 19.2259C44.1621 15.8495 41.389 13.3687 38.0414 12.5383C40.5679 9.78303 40.0322 5.24682 40.0076 5.05078C39.9309 4.43967 39.4497 3.95846 38.8387 3.88165C38.638 3.8564 33.8955 3.29577 31.1644 6.02729C30.7159 6.47588 30.3504 6.99743 30.0524 7.55706C28.9874 5.5319 27.3727 3.96565 25.2893 2.96102C24.6191 2.63767 23.8136 2.91906 23.4904 3.58965C23.1672 4.26007 23.4486 5.06561 24.1189 5.38886C26.2657 6.42395 27.7033 8.19459 28.3922 10.6513C28.6234 11.476 28.7303 12.2491 28.7768 12.8657C27.9615 12.6975 26.9318 12.2351 25.0655 12.2351C23.2103 12.2351 21.3919 12.7443 19.8069 13.6866C18.959 12.1907 18.3666 11.5776 17.9278 11.2465C16.12 9.88339 13.9755 9.425 11.6935 9.90423L11.7884 5.20145C11.8034 4.45736 11.2124 3.84185 10.4684 3.82684C9.72651 3.81175 9.10901 4.40292 9.09401 5.147L8.98754 10.4221L4.70864 3.60268C4.31297 2.97225 3.48138 2.78196 2.85103 3.17763C2.22069 3.57321 2.0304 4.40499 2.42589 5.03551L6.70488 11.8551L1.9092 9.6568C1.23259 9.34657 0.43298 9.64377 0.122839 10.3205C-0.187212 10.997 0.109902 11.797 0.786425 12.107L5.06164 14.0667C3.63708 15.9136 3.11706 18.0447 3.55819 20.2662C4.43956 24.6988 20.2367 39.163 23.5534 42.2167C24.7234 43.2939 26.3648 43.4797 27.6378 42.6806C28.9112 41.8812 29.4571 40.3219 28.9962 38.8004C28.9341 38.5956 28.8701 38.385 28.8052 38.1718C29.7928 37.5904 31.0198 37.6221 31.9806 38.2695C33.2611 39.1295 34.7883 39.4319 36.296 39.1227C37.8029 38.8133 39.0923 37.9308 39.9269 36.6374L43.9192 30.4454C46.0803 27.0928 46.5857 23.0034 45.3056 19.2259ZM33.0699 7.93315C34.2312 6.77165 36.1535 6.53536 37.3728 6.51407C37.3494 7.73585 37.1118 9.66498 35.9567 10.8204C34.846 11.9313 32.9215 12.5316 31.4918 12.8171C31.5884 11.2215 31.9667 9.03652 33.0699 7.93315ZM25.3785 40.2336C22.2972 37.3965 17.962 33.3234 14.189 29.4794L15.5174 28.6456C16.1477 28.2501 16.338 27.4183 15.9425 26.7878C15.5469 26.1572 14.7153 25.9671 14.0849 26.3627L12.2767 27.4976C6.97154 21.893 6.28334 20.1526 6.2014 19.7407C5.7325 17.3798 7.02796 15.6868 8.10788 14.7264C9.44584 13.5499 10.8088 13.0126 10.9112 12.9613C12.2447 12.3987 14.3667 11.9369 16.3052 13.3986C16.5425 13.5776 17.2458 14.3183 18.6057 17.2871L16.3102 18.728C15.6798 19.1235 15.4895 19.9553 15.8851 20.5858C16.2806 21.2161 17.112 21.4067 17.7427 21.0109L19.6843 19.7922C20.12 20.8589 20.6025 22.1012 21.1358 23.5491C21.7709 25.2737 22.4066 27.0953 23.021 28.9179L21.4347 29.7929C20.783 30.1525 20.5462 30.9722 20.9057 31.624C21.2651 32.2756 22.0844 32.5126 22.7363 32.1531L23.8842 31.5199C24.7499 34.1694 25.6122 36.9251 26.417 39.5819C26.6495 40.3491 25.9687 40.7771 25.3785 40.2336ZM41.6542 28.9846L37.6622 35.1762C36.7551 36.5819 34.8752 36.9691 33.4871 36.034C33.4753 36.026 33.4632 36.0183 33.4512 36.0107C31.8057 34.919 29.7574 34.7685 27.9999 35.5577C27.3803 33.5686 25.9389 29.1455 25.9358 29.1362C25.2041 26.9358 21.7574 17.6885 21.025 16.0985C22.232 15.3404 23.6345 14.9305 25.0655 14.9305C25.8193 14.9305 26.57 15.0436 27.296 15.2665C29.2136 15.8559 31.3315 15.8808 33.333 15.2666C34.0594 15.0436 34.81 14.9305 35.5637 14.9305C38.8185 14.9305 41.7077 17.0041 42.7532 20.0908C43.768 23.0855 43.3674 26.3271 41.6542 28.9846Z" fill="#AB1F24"/>
</g>
<defs>
<clipPath id="clip0_1241_3079">
<rect width="46" height="46" fill="white"/>
</clipPath>
</defs>
</svg>
