<svg width="590" height="372" viewBox="0 0 590 372" fill="none" xmlns="http://www.w3.org/2000/svg">
<path d="M580.324 162.198C549.792 116.102 474.967 155.521 447.66 140.012C420.353 124.503 455.401 97.5775 471.312 109.855C487.008 122.133 490.018 125.795 490.018 125.795C490.018 125.795 486.148 105.332 500.984 109.64C516.035 113.948 519.905 130.749 519.905 130.749C519.905 130.749 518.4 112.871 537.751 120.841C561.618 130.319 580.324 162.198 580.324 162.198Z" fill="#FFC15F"/>
<path d="M549.362 136.35C530.011 128.38 520.12 130.319 520.12 130.319C520.12 130.319 519.475 127.518 517.755 123.856C518.185 127.303 517.97 131.396 515.82 132.257C509.799 134.627 501.844 135.057 494.103 127.088C492.383 125.364 490.878 123.426 489.803 121.487C490.018 123.641 490.233 125.364 490.233 125.364C490.233 125.364 489.803 124.933 488.943 124.072C489.158 125.58 489.158 127.303 488.728 128.595C486.148 138.504 470.452 141.95 453.895 136.565C447.66 134.627 442.285 131.611 437.984 128.165C438.629 132.257 441.64 136.35 447.875 139.796C475.182 155.305 550.007 115.887 580.539 161.983C580.324 162.198 573.229 146.258 549.362 136.35Z" fill="#FFDB9F"/>
<path d="M184.267 211.31C42.5726 214.972 63.429 188.047 63.429 188.047C63.429 188.047 12.9006 189.77 1.07476 175.122C-10.751 160.69 87.2956 155.305 87.2956 155.305C87.2956 155.305 76.9749 150.997 72.6746 143.674C59.9887 121.918 141.264 125.58 221.035 142.597C244.686 147.551 294.355 130.965 336.067 139.581C361.654 144.966 391.111 149.705 418.848 149.489C425.514 139.581 444.65 150.351 469.807 141.089C522.485 121.918 611.931 152.505 575.594 172.968C540.116 192.785 442.93 184.6 442.93 184.6C442.93 184.6 454.326 207.648 364.449 195.801C278.874 184.6 238.666 210.018 184.267 211.31Z" fill="#FFDBA0"/>
<path d="M470.452 157.89C432.179 174.691 415.623 155.521 418.418 149.489C417.128 149.489 415.838 149.489 414.548 149.489C381.651 171.46 293.495 175.553 251.567 170.383C210.284 165.429 221.68 151.428 232.216 143.458C230.496 143.458 228.99 143.458 227.485 143.243C208.564 149.92 171.367 160.259 122.343 158.536C95.0364 157.459 79.9854 150.566 72.2449 142.596C72.4599 143.027 72.6749 143.243 72.8899 143.673C77.1902 150.997 87.5109 155.305 87.5109 155.305C87.5109 155.305 85.1457 155.521 81.4905 155.736C93.7463 160.259 101.702 166.291 89.016 173.399C72.0298 182.877 26.0167 187.616 1.29004 174.907C1.29004 174.907 1.29004 175.122 1.50505 175.122C13.3309 189.554 63.8593 188.046 63.8593 188.046C63.8593 188.046 43.0029 214.972 184.697 211.31C239.096 210.017 279.519 184.6 364.665 195.801C454.541 207.648 443.145 184.6 443.145 184.6C443.145 184.6 540.332 192.57 575.809 172.968C580.324 170.383 582.904 167.799 583.98 164.998C574.519 177.061 506.144 189.985 470.452 157.89Z" fill="#FFC15F"/>
<path d="M126.429 191.708C125.999 186.969 110.087 179.43 92.8863 179.43C75.4701 179.43 61.9242 185.031 62.3542 191.708C62.9992 198.601 77.4052 203.986 94.8214 203.986C112.023 203.986 126.859 196.447 126.429 191.708Z" fill="#FFDB9F"/>
<path d="M478.407 85.2996L473.677 89.1768V103.393H479.697L478.407 85.2996Z" fill="#C4B09D"/>
<path d="M495.823 165.645V140.658L490.663 136.565V106.625L475.397 96.9314L460.131 106.625V136.565L454.97 140.658V165.645L449.165 170.168V370.277H501.629V170.168L495.823 165.645Z" fill="#C4B09D"/>
<path d="M484.213 85.5149H478.407V99.9469H484.213V85.5149Z" fill="#C4B09D"/>
<path d="M476.042 78.6218L475.612 77.114L474.967 78.6218V120.625H476.042V78.6218Z" fill="#C4B09D"/>
<path d="M481.848 71.0828L481.417 69.3596L480.772 71.0828V113.086H481.848V71.0828Z" fill="#C4B09D"/>
<path d="M479.267 58.1587L478.622 56.0046L478.192 58.1587V113.086H479.267V58.1587Z" fill="#C4B09D"/>
<path d="M504.209 162.198V136.996L499.049 133.119V102.962L483.783 93.2693L468.517 102.962V133.119L463.356 136.996V162.198L457.551 166.722V366.615H510.014V166.722L504.209 162.198Z" fill="#EDDCC0"/>
<path d="M504.424 159.398H460.991V162.198H504.424V159.398Z" fill="#C4B09D"/>
<path d="M510.015 166.506H456.046V167.799H510.015V166.506Z" fill="#C4B09D"/>
<path d="M499.264 130.318H466.582V133.119H499.264V130.318Z" fill="#C4B09D"/>
<path d="M499.264 102.962H466.582V104.255H499.264V102.962Z" fill="#C4B09D"/>
<path d="M504.209 137.211H460.776V138.288H504.209V137.211Z" fill="#C4B09D"/>
<path d="M462.926 252.021H459.916V263.222H462.926V252.021Z" fill="#FFF5E3"/>
<path d="M462.926 265.806H459.916V277.007H462.926V265.806Z" fill="#FFF5E3"/>
<path d="M462.926 279.808H459.916V291.009H462.926V279.808Z" fill="#FFF5E3"/>
<path d="M462.926 293.594H459.916V304.794H462.926V293.594Z" fill="#FFF5E3"/>
<path d="M462.926 307.594H459.916V318.795H462.926V307.594Z" fill="#FFF5E3"/>
<path d="M462.926 321.596H459.916V332.797H462.926V321.596Z" fill="#FFF5E3"/>
<path d="M468.086 252.021H465.076V263.222H468.086V252.021Z" fill="#FFF5E3"/>
<path d="M468.086 265.806H465.076V277.007H468.086V265.806Z" fill="#FFF5E3"/>
<path d="M468.086 279.808H465.076V291.009H468.086V279.808Z" fill="#FFF5E3"/>
<path d="M468.086 293.594H465.076V304.794H468.086V293.594Z" fill="#FFF5E3"/>
<path d="M468.086 307.594H465.076V318.795H468.086V307.594Z" fill="#FFF5E3"/>
<path d="M468.086 321.596H465.076V332.797H468.086V321.596Z" fill="#FFF5E3"/>
<path d="M473.032 252.021H470.021V263.222H473.032V252.021Z" fill="#FFF5E3"/>
<path d="M473.032 265.806H470.021V277.007H473.032V265.806Z" fill="#FFF5E3"/>
<path d="M473.032 279.808H470.021V291.009H473.032V279.808Z" fill="#FFF5E3"/>
<path d="M473.032 293.594H470.021V304.794H473.032V293.594Z" fill="#FFF5E3"/>
<path d="M473.032 307.594H470.021V318.795H473.032V307.594Z" fill="#FFF5E3"/>
<path d="M473.032 321.596H470.021V332.797H473.032V321.596Z" fill="#FFF5E3"/>
<path d="M478.192 252.021H475.182V263.222H478.192V252.021Z" fill="#FFF5E3"/>
<path d="M478.192 265.806H475.182V277.007H478.192V265.806Z" fill="#FFF5E3"/>
<path d="M478.192 279.808H475.182V291.009H478.192V279.808Z" fill="#FFF5E3"/>
<path d="M478.192 293.594H475.182V304.794H478.192V293.594Z" fill="#FFF5E3"/>
<path d="M478.192 307.594H475.182V318.795H478.192V307.594Z" fill="#FFF5E3"/>
<path d="M478.192 321.596H475.182V332.797H478.192V321.596Z" fill="#FFF5E3"/>
<path d="M483.353 252.021H480.342V263.222H483.353V252.021Z" fill="#FFF5E3"/>
<path d="M483.353 265.806H480.342V277.007H483.353V265.806Z" fill="#FFF5E3"/>
<path d="M483.353 279.808H480.342V291.009H483.353V279.808Z" fill="#FFF5E3"/>
<path d="M483.353 293.594H480.342V304.794H483.353V293.594Z" fill="#FFF5E3"/>
<path d="M483.353 307.594H480.342V318.795H483.353V307.594Z" fill="#FFF5E3"/>
<path d="M483.353 321.596H480.342V332.797H483.353V321.596Z" fill="#FFF5E3"/>
<path d="M488.083 252.021H485.073V263.222H488.083V252.021Z" fill="#FFF5E3"/>
<path d="M488.083 265.806H485.073V277.007H488.083V265.806Z" fill="#FFF5E3"/>
<path d="M488.083 279.808H485.073V291.009H488.083V279.808Z" fill="#FFF5E3"/>
<path d="M488.083 293.594H485.073V304.794H488.083V293.594Z" fill="#FFF5E3"/>
<path d="M488.083 307.594H485.073V318.795H488.083V307.594Z" fill="#FFF5E3"/>
<path d="M488.083 321.596H485.073V332.797H488.083V321.596Z" fill="#FFF5E3"/>
<path d="M493.243 252.021H490.233V263.222H493.243V252.021Z" fill="#FFF5E3"/>
<path d="M493.243 265.806H490.233V277.007H493.243V265.806Z" fill="#FFF5E3"/>
<path d="M493.243 279.808H490.233V291.009H493.243V279.808Z" fill="#FFF5E3"/>
<path d="M493.243 293.594H490.233V304.794H493.243V293.594Z" fill="#FFF5E3"/>
<path d="M493.243 307.594H490.233V318.795H493.243V307.594Z" fill="#FFF5E3"/>
<path d="M493.243 321.596H490.233V332.797H493.243V321.596Z" fill="#FFF5E3"/>
<path d="M498.404 252.021H495.394V263.222H498.404V252.021Z" fill="#FFF5E3"/>
<path d="M498.404 265.806H495.394V277.007H498.404V265.806Z" fill="#FFF5E3"/>
<path d="M498.404 279.808H495.394V291.009H498.404V279.808Z" fill="#FFF5E3"/>
<path d="M498.404 293.594H495.394V304.794H498.404V293.594Z" fill="#FFF5E3"/>
<path d="M498.404 307.594H495.394V318.795H498.404V307.594Z" fill="#FFF5E3"/>
<path d="M498.404 321.596H495.394V332.797H498.404V321.596Z" fill="#FFF5E3"/>
<path d="M503.349 252.021H500.339V263.222H503.349V252.021Z" fill="#FFF5E3"/>
<path d="M503.349 265.806H500.339V277.007H503.349V265.806Z" fill="#FFF5E3"/>
<path d="M503.349 279.808H500.339V291.009H503.349V279.808Z" fill="#FFF5E3"/>
<path d="M503.349 293.594H500.339V304.794H503.349V293.594Z" fill="#FFF5E3"/>
<path d="M503.349 307.594H500.339V318.795H503.349V307.594Z" fill="#FFF5E3"/>
<path d="M503.349 321.596H500.339V332.797H503.349V321.596Z" fill="#FFF5E3"/>
<path d="M508.509 252.021H505.499V263.222H508.509V252.021Z" fill="#FFF5E3"/>
<path d="M508.509 265.806H505.499V277.007H508.509V265.806Z" fill="#FFF5E3"/>
<path d="M508.509 279.808H505.499V291.009H508.509V279.808Z" fill="#FFF5E3"/>
<path d="M508.509 293.594H505.499V304.794H508.509V293.594Z" fill="#FFF5E3"/>
<path d="M508.509 307.594H505.499V318.795H508.509V307.594Z" fill="#FFF5E3"/>
<path d="M508.509 321.596H505.499V332.797H508.509V321.596Z" fill="#FFF5E3"/>
<path d="M462.926 169.522H459.916V180.723H462.926V169.522Z" fill="#FFF5E3"/>
<path d="M462.926 183.523H459.916V194.724H462.926V183.523Z" fill="#FFF5E3"/>
<path d="M462.926 197.309H459.916V208.51H462.926V197.309Z" fill="#FFF5E3"/>
<path d="M462.926 211.31H459.916V222.511H462.926V211.31Z" fill="#FFF5E3"/>
<path d="M462.926 225.311H459.916V236.512H462.926V225.311Z" fill="#FFF5E3"/>
<path d="M462.926 239.097H459.916V250.298H462.926V239.097Z" fill="#FFF5E3"/>
<path d="M468.086 169.522H465.076V180.723H468.086V169.522Z" fill="#FFF5E3"/>
<path d="M468.086 183.523H465.076V194.724H468.086V183.523Z" fill="#FFF5E3"/>
<path d="M468.086 197.309H465.076V208.51H468.086V197.309Z" fill="#FFF5E3"/>
<path d="M468.086 211.31H465.076V222.511H468.086V211.31Z" fill="#FFF5E3"/>
<path d="M468.086 225.311H465.076V236.512H468.086V225.311Z" fill="#FFF5E3"/>
<path d="M468.086 239.097H465.076V250.298H468.086V239.097Z" fill="#FFF5E3"/>
<path d="M473.032 169.522H470.021V180.723H473.032V169.522Z" fill="#FFF5E3"/>
<path d="M473.032 183.523H470.021V194.724H473.032V183.523Z" fill="#FFF5E3"/>
<path d="M473.032 197.309H470.021V208.51H473.032V197.309Z" fill="#FFF5E3"/>
<path d="M473.032 211.31H470.021V222.511H473.032V211.31Z" fill="#FFF5E3"/>
<path d="M473.032 225.311H470.021V236.512H473.032V225.311Z" fill="#FFF5E3"/>
<path d="M473.032 239.097H470.021V250.298H473.032V239.097Z" fill="#FFF5E3"/>
<path d="M478.192 169.522H475.182V180.723H478.192V169.522Z" fill="#FFF5E3"/>
<path d="M478.192 183.523H475.182V194.724H478.192V183.523Z" fill="#FFF5E3"/>
<path d="M478.192 197.309H475.182V208.51H478.192V197.309Z" fill="#FFF5E3"/>
<path d="M478.192 211.31H475.182V222.511H478.192V211.31Z" fill="#FFF5E3"/>
<path d="M478.192 225.311H475.182V236.512H478.192V225.311Z" fill="#FFF5E3"/>
<path d="M478.192 239.097H475.182V250.298H478.192V239.097Z" fill="#FFF5E3"/>
<path d="M483.353 169.522H480.342V180.723H483.353V169.522Z" fill="#FFF5E3"/>
<path d="M483.353 183.523H480.342V194.724H483.353V183.523Z" fill="#FFF5E3"/>
<path d="M483.353 197.309H480.342V208.51H483.353V197.309Z" fill="#FFF5E3"/>
<path d="M483.353 211.31H480.342V222.511H483.353V211.31Z" fill="#FFF5E3"/>
<path d="M483.353 225.311H480.342V236.512H483.353V225.311Z" fill="#FFF5E3"/>
<path d="M483.353 239.097H480.342V250.298H483.353V239.097Z" fill="#FFF5E3"/>
<path d="M488.083 169.522H485.073V180.723H488.083V169.522Z" fill="#FFF5E3"/>
<path d="M488.083 183.523H485.073V194.724H488.083V183.523Z" fill="#FFF5E3"/>
<path d="M488.083 197.309H485.073V208.51H488.083V197.309Z" fill="#FFF5E3"/>
<path d="M488.083 211.31H485.073V222.511H488.083V211.31Z" fill="#FFF5E3"/>
<path d="M488.083 225.311H485.073V236.512H488.083V225.311Z" fill="#FFF5E3"/>
<path d="M488.083 239.097H485.073V250.298H488.083V239.097Z" fill="#FFF5E3"/>
<path d="M493.243 169.522H490.233V180.723H493.243V169.522Z" fill="#FFF5E3"/>
<path d="M493.243 183.523H490.233V194.724H493.243V183.523Z" fill="#FFF5E3"/>
<path d="M493.243 197.309H490.233V208.51H493.243V197.309Z" fill="#FFF5E3"/>
<path d="M493.243 211.31H490.233V222.511H493.243V211.31Z" fill="#FFF5E3"/>
<path d="M493.243 225.311H490.233V236.512H493.243V225.311Z" fill="#FFF5E3"/>
<path d="M493.243 239.097H490.233V250.298H493.243V239.097Z" fill="#FFF5E3"/>
<path d="M498.404 169.522H495.394V180.723H498.404V169.522Z" fill="#FFF5E3"/>
<path d="M498.404 183.523H495.394V194.724H498.404V183.523Z" fill="#FFF5E3"/>
<path d="M498.404 197.309H495.394V208.51H498.404V197.309Z" fill="#FFF5E3"/>
<path d="M498.404 211.31H495.394V222.511H498.404V211.31Z" fill="#FFF5E3"/>
<path d="M498.404 225.311H495.394V236.512H498.404V225.311Z" fill="#FFF5E3"/>
<path d="M498.404 239.097H495.394V250.298H498.404V239.097Z" fill="#FFF5E3"/>
<path d="M503.349 169.522H500.339V180.723H503.349V169.522Z" fill="#FFF5E3"/>
<path d="M503.349 183.523H500.339V194.724H503.349V183.523Z" fill="#FFF5E3"/>
<path d="M503.349 197.309H500.339V208.51H503.349V197.309Z" fill="#FFF5E3"/>
<path d="M503.349 211.31H500.339V222.511H503.349V211.31Z" fill="#FFF5E3"/>
<path d="M503.349 225.311H500.339V236.512H503.349V225.311Z" fill="#FFF5E3"/>
<path d="M503.349 239.097H500.339V250.298H503.349V239.097Z" fill="#FFF5E3"/>
<path d="M508.509 169.522H505.499V180.723H508.509V169.522Z" fill="#FFF5E3"/>
<path d="M508.509 183.523H505.499V194.724H508.509V183.523Z" fill="#FFF5E3"/>
<path d="M508.509 197.309H505.499V208.51H508.509V197.309Z" fill="#FFF5E3"/>
<path d="M508.509 211.31H505.499V222.511H508.509V211.31Z" fill="#FFF5E3"/>
<path d="M508.509 225.311H505.499V236.512H508.509V225.311Z" fill="#FFF5E3"/>
<path d="M508.509 239.097H505.499V250.298H508.509V239.097Z" fill="#FFF5E3"/>
<path d="M468.732 140.227H465.937V147.766H468.732V140.227Z" fill="#FFF5E3"/>
<path d="M468.732 149.705H465.937V157.244H468.732V149.705Z" fill="#FFF5E3"/>
<path d="M473.677 140.227H470.882V147.766H473.677V140.227Z" fill="#FFF5E3"/>
<path d="M473.677 149.705H470.882V157.244H473.677V149.705Z" fill="#FFF5E3"/>
<path d="M478.622 140.227H475.827V147.766H478.622V140.227Z" fill="#FFF5E3"/>
<path d="M478.622 149.705H475.827V157.244H478.622V149.705Z" fill="#FFF5E3"/>
<path d="M483.568 140.227H480.772V147.766H483.568V140.227Z" fill="#FFF5E3"/>
<path d="M483.568 149.705H480.772V157.244H483.568V149.705Z" fill="#FFF5E3"/>
<path d="M488.298 140.227H485.503V147.766H488.298V140.227Z" fill="#FFF5E3"/>
<path d="M488.298 149.705H485.503V157.244H488.298V149.705Z" fill="#FFF5E3"/>
<path d="M493.243 140.227H490.448V147.766H493.243V140.227Z" fill="#FFF5E3"/>
<path d="M493.243 149.705H490.448V157.244H493.243V149.705Z" fill="#FFF5E3"/>
<path d="M498.189 140.227H495.394V147.766H498.189V140.227Z" fill="#FFF5E3"/>
<path d="M498.189 149.705H495.394V157.244H498.189V149.705Z" fill="#FFF5E3"/>
<path d="M502.919 140.227H500.124V147.766H502.919V140.227Z" fill="#FFF5E3"/>
<path d="M502.919 149.705H500.124V157.244H502.919V149.705Z" fill="#FFF5E3"/>
<path d="M477.547 108.563H475.182V116.317H477.547V108.563Z" fill="#FFF5E3"/>
<path d="M477.547 118.256H475.182V126.01H477.547V118.256Z" fill="#FFF5E3"/>
<path d="M481.633 108.563H479.268V116.317H481.633V108.563Z" fill="#FFF5E3"/>
<path d="M481.633 118.256H479.268V126.01H481.633V118.256Z" fill="#FFF5E3"/>
<path d="M485.503 108.563H483.138V116.317H485.503V108.563Z" fill="#FFF5E3"/>
<path d="M485.503 118.256H483.138V126.01H485.503V118.256Z" fill="#FFF5E3"/>
<path d="M489.373 108.563H487.008V116.317H489.373V108.563Z" fill="#FFF5E3"/>
<path d="M489.373 118.256H487.008V126.01H489.373V118.256Z" fill="#FFF5E3"/>
<path d="M493.244 108.563H490.878V116.317H493.244V108.563Z" fill="#FFF5E3"/>
<path d="M493.244 118.256H490.878V126.01H493.244V118.256Z" fill="#FFF5E3"/>
<path d="M482.923 255.898H453.036V364.676H482.923V255.898Z" fill="#C4B09D"/>
<path d="M126.6 301.57V277.23H124.664V301.57H126.6Z" fill="#513E48"/>
<path d="M159.971 294.24H120.408V366.615H159.971V294.24Z" fill="#513E48"/>
<path d="M523.345 297.471H473.892V314.703H523.345V297.471Z" fill="#513E48"/>
<path d="M502.919 289.501H483.567V298.548H502.919V289.501Z" fill="#513E48"/>
<path d="M447.23 248.574L418.418 253.098V270.33H447.23V248.574Z" fill="#513E48"/>
<path d="M430.459 240.174H428.954V257.406H430.459V240.174Z" fill="#513E48"/>
<path d="M434.329 225.526H432.824V254.39H434.329V225.526Z" fill="#513E48"/>
<path d="M499.264 269.253H497.759V298.117H499.264V269.253Z" fill="#513E48"/>
<path d="M490.878 277.008H489.373V298.117H490.878V277.008Z" fill="#513E48"/>
<path d="M132.234 303.287H109.012V320.734H132.234V303.287Z" fill="#513E48"/>
<path d="M528.075 301.779H478.622V366.615H528.075V301.779Z" fill="#E23760"/>
<path d="M493.888 305.656H488.943V317.288H493.888V305.656Z" fill="#C61A54"/>
<path d="M493.888 320.519H488.943V332.151H493.888V320.519Z" fill="#C61A54"/>
<path d="M493.888 335.382H488.943V347.014H493.888V335.382Z" fill="#C61A54"/>
<path d="M501.414 305.656H496.469V317.288H501.414V305.656Z" fill="#C61A54"/>
<path d="M501.414 320.519H496.469V332.151H501.414V320.519Z" fill="#C61A54"/>
<path d="M501.414 335.382H496.469V347.014H501.414V335.382Z" fill="#C61A54"/>
<path d="M508.939 305.656H503.994V317.288H508.939V305.656Z" fill="#C61A54"/>
<path d="M508.939 320.519H503.994V332.151H508.939V320.519Z" fill="#C61A54"/>
<path d="M508.939 335.382H503.994V347.014H508.939V335.382Z" fill="#C61A54"/>
<path d="M516.68 305.656H511.734V317.288H516.68V305.656Z" fill="#C61A54"/>
<path d="M516.68 320.519H511.734V332.151H516.68V320.519Z" fill="#C61A54"/>
<path d="M516.68 335.382H511.734V347.014H516.68V335.382Z" fill="#C61A54"/>
<path d="M524.206 305.656H519.26V317.288H524.206V305.656Z" fill="#C61A54"/>
<path d="M524.206 320.519H519.26V332.151H524.206V320.519Z" fill="#C61A54"/>
<path d="M524.206 335.382H519.26V347.014H524.206V335.382Z" fill="#C61A54"/>
<path d="M485.073 301.779H465.292V366.615H485.073V301.779Z" fill="#AD1A45"/>
<path d="M205.554 226.819H179.752L179.322 366.184H205.554V226.819Z" fill="#513E48"/>
<path d="M434.544 272.053H410.893V367.261H434.544V272.053Z" fill="#513E48"/>
<path d="M372.405 223.372H348.753V362.307H372.405V223.372Z" fill="#513E48"/>
<path d="M278.659 131.826H276.509V168.229H278.659V131.826Z" fill="#513E48"/>
<path d="M273.928 110.717H271.778V157.029H273.928V110.717Z" fill="#513E48"/>
<path d="M296.505 145.397H267.263V284.331H296.505V145.397Z" fill="#513E48"/>
<path d="M302.095 227.896H242.751V366.831H302.095V227.896Z" fill="#513E48"/>
<path d="M403.469 182.774V167.265H402.394V182.774H403.469Z" fill="#C4B09D"/>
<path d="M390.909 182.726V138.783H389.834V182.726H390.909Z" fill="#C4B09D"/>
<path d="M379.02 182.827V162.148H377.945V182.827H379.02Z" fill="#C4B09D"/>
<path d="M386.381 175.122H374.985V184.385H386.381V175.122Z" fill="#C4B09D"/>
<path d="M413.903 178.353H369.395V187.616H413.903V178.353Z" fill="#C4B09D"/>
<path d="M372.835 182.661L364.665 188.477V366.615H380.791L372.835 182.661Z" fill="#C4B09D"/>
<path d="M480.127 257.837H437.339V366.615H480.127V257.837Z" fill="#FFF5E3"/>
<path d="M445.08 268.822H440.35V280.669H445.08V268.822Z" fill="#EDDCC0"/>
<path d="M445.08 283.685H440.35V295.532H445.08V283.685Z" fill="#EDDCC0"/>
<path d="M445.08 298.548H440.35V310.395H445.08V298.548Z" fill="#EDDCC0"/>
<path d="M445.08 313.411H440.35V325.258H445.08V313.411Z" fill="#EDDCC0"/>
<path d="M445.08 328.273H440.35V340.12H445.08V328.273Z" fill="#EDDCC0"/>
<path d="M445.08 343.136H440.35V354.983H445.08V343.136Z" fill="#EDDCC0"/>
<path d="M453.466 268.822H448.735V280.669H453.466V268.822Z" fill="#EDDCC0"/>
<path d="M453.466 283.685H448.735V295.532H453.466V283.685Z" fill="#EDDCC0"/>
<path d="M453.466 298.548H448.735V310.395H453.466V298.548Z" fill="#EDDCC0"/>
<path d="M453.466 313.411H448.735V325.258H453.466V313.411Z" fill="#EDDCC0"/>
<path d="M453.466 328.273H448.735V340.121H453.466V328.273Z" fill="#EDDCC0"/>
<path d="M453.466 343.136H448.735V354.983H453.466V343.136Z" fill="#EDDCC0"/>
<path d="M461.636 268.822H456.906V280.669H461.636V268.822Z" fill="#EDDCC0"/>
<path d="M461.636 283.685H456.906V295.532H461.636V283.685Z" fill="#EDDCC0"/>
<path d="M461.636 298.548H456.906V310.395H461.636V298.548Z" fill="#EDDCC0"/>
<path d="M461.636 313.411H456.906V325.258H461.636V313.411Z" fill="#EDDCC0"/>
<path d="M461.636 328.273H456.906V340.121H461.636V328.273Z" fill="#EDDCC0"/>
<path d="M461.636 343.136H456.906V354.983H461.636V343.136Z" fill="#EDDCC0"/>
<path d="M470.022 268.822H465.292V280.669H470.022V268.822Z" fill="#EDDCC0"/>
<path d="M470.022 283.685H465.292V295.532H470.022V283.685Z" fill="#EDDCC0"/>
<path d="M470.022 298.548H465.292V310.395H470.022V298.548Z" fill="#EDDCC0"/>
<path d="M470.022 313.411H465.292V325.258H470.022V313.411Z" fill="#EDDCC0"/>
<path d="M470.022 328.273H465.292V340.121H470.022V328.273Z" fill="#EDDCC0"/>
<path d="M470.022 343.136H465.292V354.983H470.022V343.136Z" fill="#EDDCC0"/>
<path d="M478.192 268.822H473.462V280.669H478.192V268.822Z" fill="#EDDCC0"/>
<path d="M478.192 283.685H473.462V295.532H478.192V283.685Z" fill="#EDDCC0"/>
<path d="M478.192 298.548H473.462V310.395H478.192V298.548Z" fill="#EDDCC0"/>
<path d="M478.192 313.411H473.462V325.258H478.192V313.411Z" fill="#EDDCC0"/>
<path d="M478.192 328.273H473.462V340.121H478.192V328.273Z" fill="#EDDCC0"/>
<path d="M478.192 343.136H473.462V354.983H478.192V343.136Z" fill="#EDDCC0"/>
<path d="M437.339 257.837L415.838 267.315V366.615H437.984L437.339 257.837Z" fill="#C4B09D"/>
<path d="M423.148 182.661H372.835V366.83H423.148V182.661Z" fill="#EDDCC0"/>
<path d="M320.165 86.2077V42.2656H318.66V86.2077H320.165Z" fill="#C4B09D"/>
<path d="M179.64 189.618L179.64 170.447L174.265 170.447L174.265 189.618L179.64 189.618Z" fill="#C4B09D"/>
<path d="M163.205 181.25L163.205 147.432L160.84 147.432L160.84 181.25L163.205 181.25Z" fill="#C4B09D"/>
<path d="M155.318 184.222V160.097H152.953V184.222H155.318Z" fill="#C4B09D"/>
<path d="M175.882 175.984H146.855V186.754H175.882V175.984Z" fill="#C4B09D"/>
<path d="M226.086 51.2327L226.086 27.9692L221.786 27.9692L221.785 51.2327L226.086 51.2327Z" fill="#C4B09D"/>
<path d="M212.74 40.8881V-0.0383301L210.805 -0.0383301V40.8881H212.74Z" fill="#C4B09D"/>
<path d="M206.268 44.7283V15.4336H204.332V44.7283H206.268Z" fill="#C4B09D"/>
<path d="M222.97 34.4646H199.318V47.3887H222.97V34.4646Z" fill="#C4B09D"/>
<path d="M301.083 86.4062V65.7275H299.578V86.4062H301.083Z" fill="#C4B09D"/>
<path d="M313.061 78.6221H294.355V87.8844H313.061V78.6221Z" fill="#C4B09D"/>
<path d="M357.999 81.853H285.109V91.1153H357.999V81.853Z" fill="#C4B09D"/>
<path d="M360.364 87.4536H284.679L280.379 92.6233V366.615H360.364V87.4536Z" fill="#C4B09D"/>
<path d="M356.064 87.4536H287.259V366.615H356.064V87.4536Z" fill="#FFF5E3"/>
<path d="M357.72 310.538V293.952H285.475V310.538H357.72Z" fill="#EDDCC0"/>
<path d="M417.074 355.217H422.879V184.618H417.074V355.217Z" fill="#FFF5E3"/>
<path d="M406.918 355.217H412.723V184.618H406.918V355.217Z" fill="#FFF5E3"/>
<path d="M396.762 355.217H402.567V184.618H396.762V355.217Z" fill="#FFF5E3"/>
<path d="M386.824 355.217L392.629 355.217L392.623 184.618L386.817 184.618L386.824 355.217Z" fill="#FFF5E3"/>
<path d="M376.664 355.217H382.469V184.618H376.664V355.217Z" fill="#FFF5E3"/>
<path d="M357.756 288.604V272.018H285.511V288.604H357.756Z" fill="#EDDCC0"/>
<path d="M357.793 266.67V250.084H285.548V266.67H357.793Z" fill="#EDDCC0"/>
<path d="M357.615 244.735V228.149H285.37V244.735H357.615Z" fill="#EDDCC0"/>
<path d="M357.651 222.801V206.215H285.406V222.801H357.651Z" fill="#EDDCC0"/>
<path d="M357.688 200.867V184.281H285.443V200.867H357.688Z" fill="#EDDCC0"/>
<path d="M357.725 178.932V162.346H285.48V178.932H357.725Z" fill="#EDDCC0"/>
<path d="M357.761 156.998V140.412H285.516V156.998H357.761Z" fill="#EDDCC0"/>
<path d="M357.583 135.064V118.478L285.338 118.478V135.064H357.583Z" fill="#EDDCC0"/>
<path d="M357.62 113.129V96.5432L285.375 96.5432V113.129L357.62 113.129Z" fill="#EDDCC0"/>
<path d="M357.775 333.427V316.841H285.53V333.427H357.775Z" fill="#EDDCC0"/>
<path d="M357.615 356.315V339.729H285.37V356.315H357.615Z" fill="#EDDCC0"/>
<path d="M158.466 305.225H103.207V366.83H158.466V305.225Z" fill="#E23760"/>
<path d="M110.087 307.81H104.927V326.119H110.087V307.81Z" fill="#C61A54"/>
<path d="M117.398 307.81H112.237V326.119H117.398V307.81Z" fill="#C61A54"/>
<path d="M124.923 307.81H119.763V326.119H124.923V307.81Z" fill="#C61A54"/>
<path d="M110.087 329.35H104.927V359.076H110.087V329.35Z" fill="#C61A54"/>
<path d="M117.398 329.35H112.237V359.076H117.398V329.35Z" fill="#C61A54"/>
<path d="M124.923 329.35H119.763V359.076H124.923V329.35Z" fill="#C61A54"/>
<path d="M146.64 305.225H127.719V366.83H146.64V305.225Z" fill="#AD1A45"/>
<path d="M171.151 180.077V366.184H187.062V184.385L171.151 180.077Z" fill="#C4B09D"/>
<path d="M171.152 180.077H131.589V366.184H171.152V180.077Z" fill="#EDDCC0"/>
<path d="M164.779 355.273L169.079 355.273L169.071 182.735L164.77 182.736L164.779 355.273Z" fill="#FFF5E3"/>
<path d="M157.115 355.273H161.415L161.415 182.735H157.115L157.115 355.273Z" fill="#FFF5E3"/>
<path d="M149.455 355.273H153.755L153.755 182.735H149.455L149.455 355.273Z" fill="#FFF5E3"/>
<path d="M141.794 355.273H146.095L146.095 182.735H141.794L141.794 355.273Z" fill="#FFF5E3"/>
<path d="M134.349 355.273H138.649L138.649 182.735H134.349L134.349 355.273Z" fill="#FFF5E3"/>
<path d="M169.216 201.832H132.879V209.802H169.216V201.832Z" fill="#EDDCC0"/>
<path d="M169.216 242.328H132.879V250.298H169.216V242.328Z" fill="#EDDCC0"/>
<path d="M169.216 282.823H132.879V290.793H169.216V282.823Z" fill="#EDDCC0"/>
<path d="M169.216 323.319H132.879V331.289H169.216V323.319Z" fill="#EDDCC0"/>
<path d="M269.413 48.2502L260.167 38.5571H191.363V366.615H269.413V48.2502Z" fill="#C4B09D"/>
<path d="M260.167 38.5571H191.578V366.615H260.167V38.5571Z" fill="#FFF5E3"/>
<path d="M205.984 335.597H195.448V356.491H205.984V335.597Z" fill="#EDDCC0"/>
<path d="M205.984 312.98H195.448V333.874H205.984V312.98Z" fill="#EDDCC0"/>
<path d="M205.984 290.363H195.448V311.257H205.984V290.363Z" fill="#EDDCC0"/>
<path d="M205.984 267.745H195.448V288.639H205.984V267.745Z" fill="#EDDCC0"/>
<path d="M205.984 245.128H195.448V266.022H205.984V245.128Z" fill="#EDDCC0"/>
<path d="M205.984 222.511H195.448V243.405H205.984V222.511Z" fill="#EDDCC0"/>
<path d="M205.984 199.894H195.448V220.788H205.984V199.894Z" fill="#EDDCC0"/>
<path d="M205.984 177.276H195.448V198.17H205.984V177.276Z" fill="#EDDCC0"/>
<path d="M205.984 154.659H195.448V175.553H205.984V154.659Z" fill="#EDDCC0"/>
<path d="M205.984 132.042H195.448V152.936H205.984V132.042Z" fill="#EDDCC0"/>
<path d="M205.984 109.425H195.448V130.319H205.984V109.425Z" fill="#EDDCC0"/>
<path d="M205.984 86.8074H195.448V107.701H205.984V86.8074Z" fill="#EDDCC0"/>
<path d="M205.984 64.1899H195.448V85.084H205.984V64.1899Z" fill="#EDDCC0"/>
<path d="M205.984 41.5728H195.448V62.4668H205.984V41.5728Z" fill="#EDDCC0"/>
<path d="M218.455 335.597H207.919V356.491H218.455V335.597Z" fill="#EDDCC0"/>
<path d="M218.455 312.98H207.919V333.874H218.455V312.98Z" fill="#EDDCC0"/>
<path d="M218.455 290.363H207.919V311.257H218.455V290.363Z" fill="#EDDCC0"/>
<path d="M218.455 267.745H207.919V288.639H218.455V267.745Z" fill="#EDDCC0"/>
<path d="M218.455 245.128H207.919V266.022H218.455V245.128Z" fill="#EDDCC0"/>
<path d="M218.455 222.511H207.919V243.405H218.455V222.511Z" fill="#EDDCC0"/>
<path d="M218.455 199.894H207.919V220.788H218.455V199.894Z" fill="#EDDCC0"/>
<path d="M218.455 177.276H207.919V198.17H218.455V177.276Z" fill="#EDDCC0"/>
<path d="M218.455 154.659H207.919V175.553H218.455V154.659Z" fill="#EDDCC0"/>
<path d="M218.455 132.042H207.919V152.936H218.455V132.042Z" fill="#EDDCC0"/>
<path d="M218.455 109.425H207.919V130.319H218.455V109.425Z" fill="#EDDCC0"/>
<path d="M218.455 86.8074H207.919V107.701H218.455V86.8074Z" fill="#EDDCC0"/>
<path d="M218.455 64.1899H207.919V85.084H218.455V64.1899Z" fill="#EDDCC0"/>
<path d="M218.455 41.5728H207.919V62.4668H218.455V41.5728Z" fill="#EDDCC0"/>
<path d="M231.141 335.597H220.605V356.491H231.141V335.597Z" fill="#EDDCC0"/>
<path d="M231.141 312.98H220.605V333.874H231.141V312.98Z" fill="#EDDCC0"/>
<path d="M231.141 290.363H220.605V311.257H231.141V290.363Z" fill="#EDDCC0"/>
<path d="M231.141 267.745H220.605V288.639H231.141V267.745Z" fill="#EDDCC0"/>
<path d="M231.141 245.128H220.605V266.022H231.141V245.128Z" fill="#EDDCC0"/>
<path d="M231.141 222.511H220.605V243.405H231.141V222.511Z" fill="#EDDCC0"/>
<path d="M231.141 199.894H220.605V220.788H231.141V199.894Z" fill="#EDDCC0"/>
<path d="M231.141 177.276H220.605V198.17H231.141V177.276Z" fill="#EDDCC0"/>
<path d="M231.141 154.659H220.605V175.553H231.141V154.659Z" fill="#EDDCC0"/>
<path d="M231.141 132.042H220.605V152.936H231.141V132.042Z" fill="#EDDCC0"/>
<path d="M231.141 109.425H220.605V130.319H231.141V109.425Z" fill="#EDDCC0"/>
<path d="M231.141 86.8074H220.605V107.701H231.141V86.8074Z" fill="#EDDCC0"/>
<path d="M231.141 64.1899H220.605V85.084H231.141V64.1899Z" fill="#EDDCC0"/>
<path d="M231.141 41.5728H220.605V62.4668H231.141V41.5728Z" fill="#EDDCC0"/>
<path d="M243.611 335.597H233.076V356.491H243.611V335.597Z" fill="#EDDCC0"/>
<path d="M243.611 312.98H233.076V333.874H243.611V312.98Z" fill="#EDDCC0"/>
<path d="M243.611 290.363H233.076V311.257H243.611V290.363Z" fill="#EDDCC0"/>
<path d="M243.611 267.745H233.076V288.639H243.611V267.745Z" fill="#EDDCC0"/>
<path d="M243.611 245.128H233.076V266.022H243.611V245.128Z" fill="#EDDCC0"/>
<path d="M243.611 222.511H233.076V243.405H243.611V222.511Z" fill="#EDDCC0"/>
<path d="M243.611 199.894H233.076V220.788H243.611V199.894Z" fill="#EDDCC0"/>
<path d="M243.611 177.276H233.076V198.17H243.611V177.276Z" fill="#EDDCC0"/>
<path d="M243.611 154.659H233.076V175.553H243.611V154.659Z" fill="#EDDCC0"/>
<path d="M243.611 132.042H233.076V152.936H243.611V132.042Z" fill="#EDDCC0"/>
<path d="M243.611 109.425H233.076V130.319H243.611V109.425Z" fill="#EDDCC0"/>
<path d="M243.611 86.8074H233.076V107.701H243.611V86.8074Z" fill="#EDDCC0"/>
<path d="M243.611 64.1899H233.076V85.084H243.611V64.1899Z" fill="#EDDCC0"/>
<path d="M243.611 41.5728H233.076V62.4668H243.611V41.5728Z" fill="#EDDCC0"/>
<path d="M256.082 335.597H245.546V356.491H256.082V335.597Z" fill="#EDDCC0"/>
<path d="M256.082 312.98H245.546V333.874H256.082V312.98Z" fill="#EDDCC0"/>
<path d="M256.082 290.363H245.546V311.257H256.082V290.363Z" fill="#EDDCC0"/>
<path d="M256.082 267.745H245.546V288.639H256.082V267.745Z" fill="#EDDCC0"/>
<path d="M256.082 245.128H245.546V266.022H256.082V245.128Z" fill="#EDDCC0"/>
<path d="M256.082 222.511H245.546V243.405H256.082V222.511Z" fill="#EDDCC0"/>
<path d="M256.082 199.894H245.546V220.788H256.082V199.894Z" fill="#EDDCC0"/>
<path d="M256.082 177.276H245.546V198.17H256.082V177.276Z" fill="#EDDCC0"/>
<path d="M256.082 154.659H245.546V175.553H256.082V154.659Z" fill="#EDDCC0"/>
<path d="M256.082 132.042H245.546V152.936H256.082V132.042Z" fill="#EDDCC0"/>
<path d="M256.082 109.425H245.546V130.319H256.082V109.425Z" fill="#EDDCC0"/>
<path d="M256.082 86.8074H245.546V107.701H256.082V86.8074Z" fill="#EDDCC0"/>
<path d="M256.082 64.1899H245.546V85.084H256.082V64.1899Z" fill="#EDDCC0"/>
<path d="M256.082 41.5728H245.546V62.4668H256.082V41.5728Z" fill="#EDDCC0"/>
<path d="M392.187 362.953C393.477 360.584 394.122 357.784 394.122 354.552C394.122 347.229 390.466 341.198 385.736 341.198C381.221 341.198 377.351 347.229 377.351 354.552C377.351 357.784 377.996 360.799 379.286 362.953H392.187Z" fill="#BCAF3F"/>
<path d="M390.897 343.998C390.897 345.506 390.467 346.798 389.822 348.306C387.671 352.398 382.726 354.983 377.781 354.983C377.781 357.999 378.641 360.799 379.716 362.953H392.402C393.692 360.584 394.337 357.784 394.337 354.553C394.122 350.244 392.832 346.367 390.897 343.998Z" fill="#AFA635"/>
<path d="M408.743 362.953C410.033 358.645 410.678 353.26 410.678 347.229C410.678 333.658 407.023 322.673 402.292 322.673C397.777 322.673 393.907 333.658 393.907 347.229C393.907 353.26 394.552 358.645 395.842 362.953H408.743Z" fill="#D1CA3F"/>
<path d="M410.678 347.013C410.678 333.443 407.023 322.458 402.292 322.458C401.217 322.458 400.357 322.888 399.497 323.965C399.497 327.627 400.142 331.935 401.432 336.243C403.582 343.136 407.023 348.521 410.463 351.106C410.678 349.814 410.678 348.521 410.678 347.013Z" fill="#E2D649"/>
<path d="M398.207 362.953C398.852 357.353 399.282 350.029 399.282 342.059C399.282 323.965 397.132 309.318 394.552 309.318C391.971 309.318 389.821 323.965 389.821 342.059C389.821 350.029 390.251 357.353 390.896 362.953H398.207Z" fill="#C1BD3A"/>
<path d="M389.606 341.628C393.047 340.767 396.487 338.182 399.067 334.305C398.637 319.873 396.702 309.103 394.337 309.103C391.757 309.103 389.606 323.535 389.606 341.628Z" fill="#D1CA3F"/>
<path d="M358.429 87.4536H354.559V366.615H358.429V87.4536Z" fill="#FFF5E3"/>
<path d="M288.549 87.4536H284.679V366.615H288.549V87.4536Z" fill="#FFF5E3"/>
<path d="M186.203 350.675C186.203 346.798 189.213 343.567 192.868 343.567C196.523 343.567 199.534 346.798 199.534 350.675C199.534 354.552 196.523 357.783 192.868 357.783C189.213 357.783 186.203 354.552 186.203 350.675Z" fill="#AFA635"/>
<path d="M204.909 365.538C210.015 365.538 214.154 361.005 214.154 355.414C214.154 349.823 210.015 345.29 204.909 345.29C199.803 345.29 195.663 349.823 195.663 355.414C195.663 361.005 199.803 365.538 204.909 365.538Z" fill="#C1BD3A"/>
<path d="M199.104 347.66C200.179 351.968 203.834 354.983 207.919 354.983C210.069 354.983 212.004 354.122 213.725 352.829C212.649 348.521 208.994 345.506 204.909 345.506C202.759 345.506 200.609 346.152 199.104 347.66Z" fill="#D1CA3F"/>
<path d="M173.517 354.983C173.517 350.029 177.172 345.936 181.687 345.936C186.202 345.936 189.858 350.029 189.858 354.983C189.858 359.937 186.202 364.03 181.687 364.03C177.172 364.03 173.517 359.937 173.517 354.983Z" fill="#C1BD3A"/>
<path d="M173.517 353.26C174.592 353.906 175.882 354.337 177.172 354.337C181.042 354.337 184.267 351.321 185.127 347.013C184.052 346.367 182.762 345.936 181.472 345.936C177.602 345.936 174.377 348.952 173.517 353.26Z" fill="#D1CA3F"/>
<path d="M172.441 365.538C172.441 365.323 172.441 365.323 172.441 365.107C172.441 356.491 178.892 349.383 187.062 349.383C195.018 349.383 201.683 356.491 201.683 365.107C201.683 365.323 201.683 365.323 201.683 365.538H172.441Z" fill="#AFA635"/>
<path d="M162.981 363.384C162.981 362.953 162.981 362.522 162.981 362.091C162.981 358.214 165.991 354.983 169.646 354.983C173.302 354.983 176.312 358.214 176.312 362.091C176.312 362.522 176.312 362.953 176.312 363.384H162.981Z" fill="#D1CA3F"/>
<path d="M187.062 349.383C181.902 349.383 177.387 352.398 174.807 356.707C177.602 358.43 182.977 358.861 188.783 357.568C192.223 356.707 195.233 355.414 197.598 353.906C194.588 351.106 190.933 349.383 187.062 349.383Z" fill="#BCAF3F"/>
<path d="M187.278 346.798C188.353 347.875 189.858 348.521 191.578 348.521C193.943 348.521 195.878 347.229 197.168 345.29C196.093 344.213 194.588 343.567 192.868 343.567C190.503 343.567 188.568 344.859 187.278 346.798Z" fill="#BCAF3F"/>
<path d="M173.302 356.276C172.227 355.414 170.936 354.983 169.431 354.983C167.066 354.983 164.916 356.491 163.626 358.43C164.701 359.291 165.991 359.722 167.496 359.722C170.076 359.937 172.227 358.43 173.302 356.276Z" fill="#E2D649"/>
<path d="M432.394 357.783C436.076 357.783 439.06 354.601 439.06 350.675C439.06 346.749 436.076 343.567 432.394 343.567C428.713 343.567 425.729 346.749 425.729 350.675C425.729 354.601 428.713 357.783 432.394 357.783Z" fill="#AFA635"/>
<path d="M444.435 365.538C449.541 365.538 453.681 361.005 453.681 355.414C453.681 349.823 449.541 345.29 444.435 345.29C439.329 345.29 435.189 349.823 435.189 355.414C435.189 361.005 439.329 365.538 444.435 365.538Z" fill="#C1BD3A"/>
<path d="M438.63 347.66C439.705 351.968 443.36 354.983 447.445 354.983C449.596 354.983 451.531 354.122 453.251 352.829C452.176 348.521 448.521 345.506 444.435 345.506C442.285 345.506 440.135 346.152 438.63 347.66Z" fill="#D1CA3F"/>
<path d="M413.043 354.983C413.043 350.029 416.698 345.936 421.213 345.936C425.729 345.936 429.384 350.029 429.384 354.983C429.384 359.937 425.729 364.03 421.213 364.03C416.483 363.815 413.043 359.937 413.043 354.983Z" fill="#C1BD3A"/>
<path d="M413.043 353.26C414.118 353.906 415.408 354.337 416.698 354.337C420.568 354.337 423.794 351.321 424.654 347.013C423.579 346.367 422.289 345.936 420.999 345.936C417.128 345.936 413.903 348.952 413.043 353.26Z" fill="#D1CA3F"/>
<path d="M411.968 365.538C411.968 365.323 411.968 365.323 411.968 365.107C411.968 356.491 418.418 349.383 426.589 349.383C434.544 349.383 441.21 356.491 441.21 365.107C441.21 365.323 441.21 365.323 441.21 365.538H411.968Z" fill="#AFA635"/>
<path d="M402.507 363.384C402.507 362.953 402.507 362.522 402.507 362.091C402.507 358.214 405.518 354.983 409.173 354.983C412.828 354.983 415.838 358.214 415.838 362.091C415.838 362.522 415.838 362.953 415.838 363.384H402.507Z" fill="#D1CA3F"/>
<path d="M426.374 349.383C421.214 349.383 416.698 352.398 414.118 356.707C416.913 358.43 422.289 358.861 428.094 357.568C431.534 356.707 434.545 355.414 436.91 353.906C434.115 351.106 430.459 349.383 426.374 349.383Z" fill="#BCAF3F"/>
<path d="M426.804 346.798C427.879 347.875 429.384 348.521 431.104 348.521C433.47 348.521 435.405 347.229 436.695 345.29C435.62 344.213 434.115 343.567 432.395 343.567C430.029 343.567 427.879 344.859 426.804 346.798Z" fill="#BCAF3F"/>
<path d="M412.828 356.276C411.753 355.414 410.463 354.983 408.958 354.983C406.593 354.983 404.442 356.491 403.152 358.43C404.227 359.291 405.518 359.722 407.023 359.722C409.603 359.937 411.753 358.43 412.828 356.276Z" fill="#E2D649"/>
<path d="M74.3947 343.998C74.3947 336.459 68.8043 330.427 61.7088 330.427C54.8283 330.427 49.0229 336.459 49.0229 343.998C49.0229 351.537 54.6133 357.568 61.7088 357.568C68.8043 357.568 74.3947 351.322 74.3947 343.998Z" fill="#AFA635"/>
<path d="M38.7025 372C48.4399 372 56.3337 363.514 56.3337 353.045C56.3337 342.576 48.4399 334.089 38.7025 334.089C28.965 334.089 21.0713 342.576 21.0713 353.045C21.0713 363.514 28.965 372 38.7025 372Z" fill="#C1BD3A"/>
<path d="M49.883 338.182C47.7329 346.152 41.0674 351.968 32.8969 351.968C28.8116 351.968 24.9414 350.46 21.9312 347.875C24.0813 339.905 30.7468 334.089 38.9173 334.089C43.0026 333.874 46.6578 335.597 49.883 338.182Z" fill="#D1CA3F"/>
<path d="M98.4764 351.968C98.4764 342.49 91.5959 334.951 83.2104 334.951C74.8248 334.951 67.9443 342.49 67.9443 351.968C67.9443 361.445 74.8248 368.985 83.2104 368.985C91.811 368.985 98.4764 361.445 98.4764 351.968Z" fill="#C1BD3A"/>
<path d="M98.2616 348.737C96.1114 349.814 93.7463 350.675 91.3811 350.675C83.8556 350.675 77.6202 344.859 76.3301 336.89C78.4802 335.813 80.8454 334.951 83.2105 334.951C90.7361 334.951 96.9715 340.767 98.2616 348.737Z" fill="#D1CA3F"/>
<path d="M100.412 372C100.412 371.785 100.412 371.354 100.412 371.139C100.412 354.553 87.9409 341.198 72.6749 341.198C57.4088 341.198 44.938 354.553 44.938 371.139C44.938 371.354 44.938 371.785 44.938 372H100.412Z" fill="#AFA635"/>
<path d="M118.258 368.123C118.473 367.477 118.473 366.615 118.473 365.753C118.473 358.214 112.882 352.183 105.787 352.183C98.9065 352.183 93.1011 358.214 93.1011 365.753C93.1011 366.615 93.1011 367.261 93.3161 368.123H118.258Z" fill="#D1CA3F"/>
<path d="M72.8897 341.413C82.7804 341.413 91.381 347.014 96.3263 355.414C90.951 358.861 81.0603 359.722 69.8795 357.137C63.4291 355.63 57.6237 353.26 53.1084 350.245C58.2687 344.86 65.1492 341.413 72.8897 341.413Z" fill="#BCAF3F"/>
<path d="M72.2448 336.459C70.0947 338.397 67.2995 339.69 64.0743 339.69C59.774 339.69 55.9037 337.32 53.5386 333.659C55.6887 331.72 58.4839 330.428 61.7091 330.428C66.2244 330.212 70.0947 332.797 72.2448 336.459Z" fill="#BCAF3F"/>
<path d="M98.6914 354.768C100.842 353.26 103.207 352.399 106.002 352.399C110.732 352.399 114.602 355.199 116.753 359.076C114.602 360.584 112.237 361.446 109.442 361.446C104.927 361.446 100.842 358.645 98.6914 354.768Z" fill="#E2D649"/>
<path d="M509.8 343.998C509.8 336.459 515.39 330.427 522.486 330.427C529.366 330.427 535.171 336.459 535.171 343.998C535.171 351.537 529.581 357.568 522.486 357.568C515.39 357.568 509.8 351.322 509.8 343.998Z" fill="#AFA635"/>
<path d="M545.492 372C555.229 372 563.123 363.514 563.123 353.045C563.123 342.576 555.229 334.089 545.492 334.089C535.755 334.089 527.861 342.576 527.861 353.045C527.861 363.514 535.755 372 545.492 372Z" fill="#C1BD3A"/>
<path d="M534.526 338.182C536.677 346.152 543.342 351.968 551.513 351.968C555.598 351.968 559.468 350.46 562.478 347.875C560.328 339.905 553.663 334.089 545.492 334.089C541.192 333.874 537.537 335.597 534.526 338.182Z" fill="#D1CA3F"/>
<path d="M485.718 351.968C485.718 342.49 492.599 334.951 500.984 334.951C509.37 334.951 516.25 342.49 516.25 351.968C516.25 361.445 509.37 368.985 500.984 368.985C492.599 368.985 485.718 361.445 485.718 351.968Z" fill="#C1BD3A"/>
<path d="M485.933 348.737C488.083 349.814 490.448 350.675 492.814 350.675C500.339 350.675 506.574 344.859 507.865 336.89C505.714 335.813 503.349 334.951 500.984 334.951C493.459 334.951 487.223 340.767 485.933 348.737Z" fill="#D1CA3F"/>
<path d="M483.783 372C483.783 371.785 483.783 371.354 483.783 371.139C483.783 354.553 496.254 341.198 511.52 341.198C526.786 341.198 539.256 354.553 539.256 371.139C539.256 371.354 539.256 371.785 539.256 372H483.783Z" fill="#AFA635"/>
<path d="M465.937 368.123C465.722 367.477 465.722 366.615 465.722 365.753C465.722 358.214 471.312 352.183 478.408 352.183C485.288 352.183 491.093 358.214 491.093 365.753C491.093 366.615 491.093 367.261 490.878 368.123H465.937Z" fill="#D1CA3F"/>
<path d="M511.305 341.413C501.414 341.413 492.813 347.014 487.868 355.414C493.244 358.861 503.134 359.722 514.315 357.137C520.765 355.63 526.571 353.26 531.086 350.245C525.926 344.86 519.045 341.413 511.305 341.413Z" fill="#BCAF3F"/>
<path d="M511.95 336.459C514.1 338.397 516.895 339.69 520.12 339.69C524.421 339.69 528.291 337.32 530.656 333.659C528.506 331.72 525.711 330.428 522.485 330.428C517.97 330.212 514.1 332.797 511.95 336.459Z" fill="#BCAF3F"/>
<path d="M485.503 354.768C483.353 353.26 480.988 352.399 478.193 352.399C473.462 352.399 469.592 355.199 467.442 359.076C469.592 360.584 471.957 361.446 474.752 361.446C479.268 361.446 483.353 358.645 485.503 354.768Z" fill="#E2D649"/>
<path d="M454.111 364.03C454.971 362.953 455.401 361.445 455.401 359.722C455.401 356.06 452.821 353.045 449.38 353.045C446.155 353.045 443.36 356.06 443.36 359.722C443.36 361.23 443.79 362.738 444.65 364.03H454.111Z" fill="#AFA635"/>
<path d="M469.376 364.03C470.882 362.092 471.527 359.722 471.527 356.922C471.527 350.891 467.226 345.937 461.851 345.937C456.476 345.937 452.175 350.891 452.175 356.922C452.175 359.722 453.035 362.092 454.325 364.03H469.376Z" fill="#D1CA3F"/>
<path d="M462.281 356.922C458.626 355.414 456.046 352.614 454.756 349.598C453.251 351.537 452.391 354.122 452.391 356.922C452.391 359.722 453.251 362.092 454.541 364.03H469.377C470.667 362.307 471.527 359.938 471.527 357.568C468.947 358.43 465.507 358.214 462.281 356.922Z" fill="#C1BD3A"/>
<path d="M364.02 364.03C364.88 362.953 365.31 361.445 365.31 359.722C365.31 356.06 362.73 353.045 359.289 353.045C356.064 353.045 353.269 356.06 353.269 359.722C353.269 361.23 353.699 362.738 354.559 364.03H364.02Z" fill="#AFA635"/>
<path d="M379.071 364.03C380.576 362.092 381.221 359.722 381.221 356.922C381.221 350.891 376.921 345.937 371.545 345.937C366.17 345.937 361.87 350.891 361.87 356.922C361.87 359.722 362.73 362.092 364.02 364.03H379.071Z" fill="#D1CA3F"/>
<path d="M371.975 356.922C368.32 355.414 365.74 352.614 364.45 349.598C362.945 351.537 362.084 354.122 362.084 356.922C362.084 359.722 362.945 362.092 364.235 364.03H379.071C380.361 362.307 381.221 359.938 381.221 357.568C378.641 358.43 375.415 358.214 371.975 356.922Z" fill="#C1BD3A"/>
<path d="M315.211 364.03C316.071 362.953 316.501 361.445 316.501 359.722C316.501 356.06 313.921 353.045 310.481 353.045C307.041 353.045 304.46 356.06 304.46 359.722C304.46 361.23 304.89 362.738 305.751 364.03H315.211Z" fill="#AFA635"/>
<path d="M330.477 364.03C331.982 362.092 332.627 359.722 332.627 356.922C332.627 350.891 328.327 345.937 322.952 345.937C317.576 345.937 313.276 350.891 313.276 356.922C313.276 359.722 314.136 362.092 315.426 364.03H330.477Z" fill="#D1CA3F"/>
<path d="M323.167 356.922C319.511 355.414 316.931 352.614 315.641 349.598C314.136 351.537 313.276 354.122 313.276 356.922C313.276 359.722 314.136 362.092 315.426 364.03H330.262C331.552 362.307 332.412 359.938 332.412 357.568C329.832 358.43 326.607 358.214 323.167 356.922Z" fill="#C1BD3A"/>
<path d="M341.013 367.046C342.303 363.169 342.948 357.999 342.948 352.399C342.948 339.905 339.293 329.566 334.562 329.566C330.047 329.566 326.177 339.69 326.177 352.399C326.177 357.999 326.822 362.953 328.112 367.046H341.013Z" fill="#AFA635"/>
<path d="M341.013 338.182C339.723 344.429 336.497 348.737 332.627 348.737C330.477 348.737 328.542 347.444 326.822 345.075C326.607 347.444 326.392 350.029 326.392 352.614C326.392 358.215 327.037 363.169 328.327 367.261H341.013C342.303 363.384 342.948 358.215 342.948 352.614C342.948 347.014 342.088 342.059 341.013 338.182Z" fill="#A39D2B"/>
<path d="M354.129 367.046C355.419 360.799 356.279 352.829 356.279 344.213C356.279 324.612 351.978 308.672 346.818 308.672C341.443 308.672 337.357 324.612 337.357 344.213C337.357 352.829 338.217 360.799 339.508 367.046H354.129Z" fill="#D1CA3F"/>
<path d="M350.903 354.768C344.668 354.768 339.723 339.475 339.723 320.519V320.304C338.218 326.55 337.143 335.166 337.143 344.429C337.143 353.045 338.003 361.015 339.293 367.261H353.914C354.989 362.738 355.634 357.138 356.064 350.891C354.559 353.26 352.839 354.768 350.903 354.768Z" fill="#C1BD3A"/>
<path d="M254.362 364.03C253.717 363.384 253.502 362.307 253.502 361.23C253.502 358.86 255.222 356.922 257.157 356.922C259.307 356.922 260.812 358.86 260.812 361.23C260.812 362.307 260.382 363.169 259.952 364.03H254.362Z" fill="#AFA635"/>
<path d="M244.686 364.03C243.826 362.738 243.181 361.23 243.181 359.507C243.181 355.629 245.976 352.398 249.202 352.398C252.642 352.398 255.222 355.629 255.222 359.507C255.222 361.23 254.792 362.953 253.717 364.03H244.686Z" fill="#D1CA3F"/>
<path d="M249.201 359.507C251.352 358.43 253.072 356.706 253.932 354.768C254.792 356.06 255.437 357.783 255.437 359.507C255.437 361.23 255.007 362.953 253.932 364.03H244.686C243.826 362.953 243.396 361.445 243.396 359.722C245.116 360.368 247.051 360.368 249.201 359.507Z" fill="#C1BD3A"/>
<path d="M288.334 364.03C289.194 362.953 289.624 361.445 289.624 359.722C289.624 356.06 286.829 353.045 283.604 353.045C280.379 353.045 277.583 356.06 277.583 359.722C277.583 361.23 278.014 362.738 278.874 364.03H288.334Z" fill="#AFA635"/>
<path d="M303.6 364.03C305.105 362.092 305.966 359.507 305.966 356.922C305.966 350.675 301.665 345.721 296.29 345.721C290.915 345.721 286.614 350.675 286.614 356.922C286.614 359.722 287.474 362.092 288.979 364.03H303.6Z" fill="#D1CA3F"/>
<path d="M296.505 356.922C292.85 355.414 290.269 352.614 288.979 349.598C287.474 351.537 286.614 354.122 286.614 356.922C286.614 359.722 287.474 362.091 288.979 364.03H304.03C305.321 362.307 306.181 359.937 306.181 357.353C303.17 358.43 299.73 358.214 296.505 356.922Z" fill="#C1BD3A"/>
<path d="M226.84 367.046C228.13 364.892 228.99 362.307 228.99 359.507C228.99 353.045 224.905 347.66 219.745 347.66C214.584 347.66 210.499 353.045 210.499 359.507C210.499 362.307 211.359 365.107 212.649 367.046H226.84Z" fill="#BCAF3F"/>
<path d="M224.26 349.167C223.185 352.183 220.39 355.199 216.949 357.137C214.799 358.43 212.649 359.076 210.714 359.291C210.714 362.092 211.574 364.892 212.864 366.83H226.84C228.13 364.676 228.99 362.092 228.99 359.291C228.99 354.983 227.055 351.106 224.26 349.167Z" fill="#AFA635"/>
<path d="M235.441 367.046C236.301 364.246 236.946 360.584 236.946 356.491C236.946 347.444 234.151 339.905 230.495 339.905C227.055 339.905 224.045 347.229 224.045 356.491C224.045 360.584 224.69 364.246 225.55 367.046H235.441Z" fill="#C1BD3A"/>
<path d="M244.686 364.03C245.546 362.738 246.191 361.23 246.191 359.291C246.191 355.199 243.181 351.968 239.526 351.968C235.871 351.968 232.86 355.199 232.86 359.291C232.86 361.015 233.505 362.738 234.365 364.03H244.686Z" fill="#AFA635"/>
<path d="M230.495 340.121C229.42 340.121 228.56 340.767 227.7 341.844C228.56 345.936 231.14 348.952 233.936 348.952C234.581 348.952 235.226 348.737 235.871 348.521C235.011 343.352 232.861 340.121 230.495 340.121Z" fill="#D1CA3F"/>
<path d="M239.526 351.968C239.096 351.968 238.666 351.968 238.021 352.183C238.881 354.553 241.246 356.491 244.256 356.491C244.686 356.491 245.116 356.491 245.547 356.276C244.471 353.691 242.106 351.968 239.526 351.968Z" fill="#C1BD3A"/>
<path d="M155.455 364.03C156.315 359.291 156.96 353.26 156.96 346.583C156.96 331.72 154.165 319.442 150.51 319.442C147.07 319.442 144.06 331.504 144.06 346.583C144.06 353.26 144.705 359.291 145.565 364.03H155.455Z" fill="#C1BD3A"/>
<path d="M154.165 344.213C150.08 344.213 146.855 337.105 145.995 327.412C144.92 332.366 144.06 339.044 144.06 346.583C144.06 353.26 144.705 359.291 145.565 364.03H155.455C156.315 359.291 156.96 353.26 156.96 346.583C156.96 345.506 156.96 344.213 156.96 343.136C156.1 343.998 155.24 344.213 154.165 344.213Z" fill="#BCAF3F"/>
<path d="M163.841 364.03C164.916 362.522 165.561 360.584 165.561 358.214C165.561 353.26 162.336 349.167 158.25 349.167C154.165 349.167 150.94 353.26 150.94 358.214C150.94 360.368 151.585 362.307 152.66 364.03H163.841Z" fill="#C1BD3A"/>
<path d="M158.251 349.383C157.821 349.383 157.391 349.383 156.961 349.598C156.746 350.244 156.746 351.106 156.746 351.752C156.746 356.276 159.326 359.938 162.766 359.938C163.841 359.938 164.701 359.507 165.561 359.076C165.561 358.861 165.561 358.645 165.561 358.43C165.561 353.475 162.336 349.383 158.251 349.383Z" fill="#D1CA3F"/>
<path d="M135.674 364.03C137.394 361.23 138.469 357.784 138.469 353.691C138.469 344.859 133.094 337.751 126.429 337.751C119.763 337.751 114.388 344.859 114.388 353.691C114.388 357.568 115.463 361.23 117.183 364.03H135.674Z" fill="#AFA635"/>
<path d="M114.603 351.106C118.258 350.891 122.343 350.244 126.428 348.521C129.869 347.229 133.094 345.506 135.674 343.567C133.524 339.905 130.084 337.536 126.428 337.536C120.408 337.751 115.678 343.567 114.603 351.106Z" fill="#BCAF3F"/>
<path d="M147.07 364.03C148.145 361.23 148.79 357.784 148.79 353.906C148.79 345.075 145.565 337.967 141.479 337.967C137.394 337.967 134.169 345.075 134.169 353.906C134.169 357.784 134.814 361.23 135.889 364.03H147.07Z" fill="#D1CA3F"/>
<path d="M143.63 350.891C139.975 350.891 136.964 347.444 136.104 342.705C134.814 345.506 133.954 349.598 133.954 353.906C133.954 357.783 134.599 361.23 135.674 364.03H146.855C147.93 361.23 148.575 357.783 148.575 353.906C148.575 352.183 148.36 350.46 148.145 348.737C147.07 350.029 145.35 350.891 143.63 350.891Z" fill="#C1BD3A"/>
<path d="M280.379 243.405C308.116 254.39 334.993 255.252 360.364 251.375V207.863C350.044 199.463 330.692 186.754 311.126 191.493C291.13 196.232 290.485 213.464 290.485 213.464C290.485 213.464 286.614 209.371 280.379 204.848V243.405Z" fill="#C4B09D"/>
<path d="M195.448 296.178L205.769 290.363H195.448V296.178Z" fill="#EFE1CB"/>
<path d="M205.984 267.745H195.448V288.639H205.984V267.745Z" fill="#EFE1CB"/>
<path d="M205.984 245.128H195.448V266.022H205.984V245.128Z" fill="#EFE1CB"/>
<path d="M205.984 222.511H195.448V243.405H205.984V222.511Z" fill="#EFE1CB"/>
<path d="M205.984 199.894H195.448V220.788H205.984V199.894Z" fill="#EFE1CB"/>
<path d="M205.984 177.276H195.448V198.17H205.984V177.276Z" fill="#EFE1CB"/>
<path d="M205.984 154.659H195.448V175.553H205.984V154.659Z" fill="#EFE1CB"/>
<path d="M205.984 152.936V137.211L195.448 143.027V152.936H205.984Z" fill="#EFE1CB"/>
<path d="M207.919 267.745V288.639H208.779L218.67 283.254V267.745H207.919Z" fill="#EFE1CB"/>
<path d="M218.455 245.128H207.919V266.022H218.455V245.128Z" fill="#EFE1CB"/>
<path d="M218.455 222.511H207.919V243.405H218.455V222.511Z" fill="#EFE1CB"/>
<path d="M218.455 199.894H207.919V220.788H218.455V199.894Z" fill="#EFE1CB"/>
<path d="M218.455 177.276H207.919V198.17H218.455V177.276Z" fill="#EFE1CB"/>
<path d="M218.455 154.659H207.919V175.553H218.455V154.659Z" fill="#EFE1CB"/>
<path d="M218.67 152.936V132.042H215.229L207.919 136.134V152.936H218.67Z" fill="#EFE1CB"/>
<path d="M218.669 130.103L218.24 130.318H218.669V130.103Z" fill="#EFE1CB"/>
<path d="M220.605 267.745V282.177L231.141 276.361V267.745H220.605Z" fill="#EFE1CB"/>
<path d="M231.141 245.128H220.605V266.022H231.141V245.128Z" fill="#EFE1CB"/>
<path d="M231.141 222.511H220.605V243.405H231.141V222.511Z" fill="#EFE1CB"/>
<path d="M231.141 199.894H220.605V220.788H231.141V199.894Z" fill="#EFE1CB"/>
<path d="M231.141 177.276H220.605V198.17H231.141V177.276Z" fill="#EFE1CB"/>
<path d="M231.141 154.659H220.605V175.553H231.141V154.659Z" fill="#EFE1CB"/>
<path d="M231.141 132.042H220.605V152.936H231.141V132.042Z" fill="#EFE1CB"/>
<path d="M231.141 130.318V123.21L220.605 129.026V130.318H231.141Z" fill="#EFE1CB"/>
<path d="M233.076 267.745V275.284L243.611 269.253V267.745H233.076Z" fill="#EFE1CB"/>
<path d="M243.611 245.128H233.076V266.022H243.611V245.128Z" fill="#EFE1CB"/>
<path d="M243.611 222.511H233.076V243.405H243.611V222.511Z" fill="#EFE1CB"/>
<path d="M243.611 199.894H233.076V220.788H243.611V199.894Z" fill="#EFE1CB"/>
<path d="M243.611 177.276H233.076V198.17H243.611V177.276Z" fill="#EFE1CB"/>
<path d="M243.611 154.659H233.076V175.553H243.611V154.659Z" fill="#EFE1CB"/>
<path d="M243.611 132.042H233.076V152.936H243.611V132.042Z" fill="#EFE1CB"/>
<path d="M243.611 130.319V116.317L233.076 122.133V130.319H243.611Z" fill="#EFE1CB"/>
<path d="M245.546 268.176L246.406 267.745H245.546V268.176Z" fill="#EFE1CB"/>
<path d="M245.546 245.128V266.022H249.417L256.082 262.36V245.128H245.546Z" fill="#EFE1CB"/>
<path d="M256.082 222.511H245.546V243.405H256.082V222.511Z" fill="#EFE1CB"/>
<path d="M256.082 199.894H245.546V220.788H256.082V199.894Z" fill="#EFE1CB"/>
<path d="M256.082 177.276H245.546V198.17H256.082V177.276Z" fill="#EFE1CB"/>
<path d="M256.082 154.659H245.546V175.553H256.082V154.659Z" fill="#EFE1CB"/>
<path d="M256.082 132.042H245.546V152.936H256.082V132.042Z" fill="#EFE1CB"/>
<path d="M256.082 130.319V109.425H255.867L245.546 115.24V130.319H256.082Z" fill="#EFE1CB"/>
<path d="M261.887 194.293C254.362 192.354 245.761 191.493 237.376 194.509C228.345 197.74 232.645 207.217 239.096 210.664C246.621 214.541 254.362 217.557 261.887 220.141V194.293Z" fill="#C4B09D"/>
<path d="M372.19 277.654C389.821 273.992 407.022 267.315 423.363 259.345V204.848C402.937 218.634 389.821 233.927 389.821 233.927C389.821 233.927 382.726 226.173 372.19 219.711V277.654Z" fill="#C4B09D"/>
<path d="M510.015 210.879V197.74C508.724 197.524 507.434 197.524 505.929 197.309C488.513 194.939 471.527 197.309 456.046 201.617V232.635C476.042 223.588 494.103 215.187 510.015 210.879Z" fill="#C4B09D"/>
<path d="M264.468 202.263C361.009 253.313 447.015 189.339 502.274 191.062C564.413 193.001 582.044 167.152 582.044 167.152C582.044 167.152 543.987 194.939 485.933 177.276C427.879 159.613 374.34 197.093 374.34 197.093C374.34 197.093 349.398 177.492 324.242 182.015C306.825 185.031 306.18 196.232 306.18 196.232C306.18 196.232 283.174 178.353 262.747 186.323C254.362 189.339 258.232 199.032 264.468 202.263Z" fill="#FFDB9F"/>
<path d="M488.083 179.861C383.156 225.311 374.125 197.093 374.125 197.093C374.125 197.093 371.33 194.939 366.815 192.355C368.32 196.447 368.535 200.324 367.245 203.771C362.945 214.541 344.023 215.403 324.887 206.14C317.576 202.478 311.556 197.955 306.826 193.216C305.966 195.155 305.966 196.447 305.966 196.447C305.966 196.447 304.461 195.155 301.665 193.432C302.525 197.093 302.095 200.324 300.59 202.909C295.215 211.956 276.724 208.941 259.092 196.447C258.877 196.232 258.447 196.016 258.232 195.801C259.307 198.601 261.458 201.186 264.253 202.694C360.794 253.744 446.8 189.77 502.059 191.493C564.198 193.432 581.829 167.583 581.829 167.583C581.829 167.583 546.352 197.524 488.083 179.861Z" fill="#FFC15F"/>
<path d="M560.973 362.092H37.1973V372H560.973V362.092Z" fill="#C1BD3A"/>
<path d="M187.062 239.743C185.557 237.804 182.762 236.081 177.602 235.866C171.796 235.65 169.001 238.02 167.496 240.174C166.206 242.328 165.991 244.266 165.991 244.266C165.991 244.266 165.991 244.266 165.991 244.051C165.991 244.051 165.991 244.051 165.991 243.836C165.991 243.836 165.991 243.62 165.776 243.62C165.131 242.543 163.626 239.958 160.616 238.235C157.605 236.297 153.09 235.22 146.64 236.512C135.889 238.666 136.534 248.359 136.964 250.728V250.944C136.964 250.944 136.964 250.944 136.964 251.159C135.244 250.728 133.524 250.513 131.804 250.728V277.654H132.019C132.234 277.654 132.664 277.869 132.879 277.869C133.739 278.085 134.599 278.3 135.674 278.731C145.135 281.1 154.38 278.085 164.056 272.484C167.281 270.546 170.506 268.391 173.732 266.022C174.807 265.16 175.882 264.514 176.957 263.653C180.182 261.283 183.622 258.698 187.062 256.114V239.743Z" fill="#C4B09D"/>
<path d="M260.167 220.572C258.877 220.572 257.802 220.572 256.512 220.572C251.782 220.572 247.052 221.218 242.751 222.08C241.031 222.511 239.311 222.726 237.591 223.157C235.871 223.588 234.366 224.019 232.861 224.449C228.99 225.742 225.335 227.034 222.11 228.327C220.82 228.757 219.53 229.404 218.24 229.834C215.229 231.127 212.434 232.204 210.069 233.065C207.274 233.927 204.909 234.573 203.189 234.142C203.189 234.142 203.189 234.142 203.189 233.927C203.619 232.635 206.414 221.865 194.158 219.28C193.083 219.064 192.223 219.064 191.363 218.849V249.436C203.189 242.328 215.874 233.927 229.42 228.111C230.065 227.896 230.925 227.465 231.571 227.25C233.721 226.388 236.086 225.526 238.236 224.88C239.741 224.449 241.246 224.019 242.751 223.588C244.256 223.157 245.761 222.726 247.267 222.511C248.127 222.295 248.772 222.295 249.632 222.08C251.137 221.865 252.857 221.649 254.362 221.434C255.867 221.218 257.372 221.218 259.092 221.218C259.307 221.218 259.522 221.218 259.737 221.218V220.572H260.167Z" fill="#C4B09D"/>
<path d="M237.591 220.788C184.697 211.31 142.555 276.146 110.947 260.422C79.3403 244.482 99.5516 220.357 117.183 228.542C117.183 228.542 116.968 213.895 129.439 213.248C144.92 212.387 147.07 225.742 147.07 225.742C147.07 225.742 149.435 215.618 160.186 217.987C173.087 220.788 169.216 232.85 169.216 232.85C178.677 234.789 204.049 213.464 237.591 220.788Z" fill="#FFDB9F"/>
<path d="M169.432 233.065C163.411 238.451 155.456 238.881 151.37 233.927C148.79 230.696 148.145 225.957 149.65 221.434C147.93 223.588 147.285 225.957 147.285 225.957C147.285 225.957 146.64 221.649 142.985 217.987C143.2 218.634 143.415 219.064 143.415 219.711C145.78 228.973 141.695 238.02 134.384 239.958C127.289 241.897 119.978 236.512 117.183 227.896C117.183 228.542 117.183 228.757 117.183 228.757C116.968 228.757 116.753 228.542 116.538 228.542C117.613 230.696 118.258 233.065 118.258 235.65C118.258 244.482 110.733 251.159 101.272 250.728C99.9819 250.728 98.9068 250.513 97.6167 250.298C100.197 253.96 104.497 257.406 110.948 260.637C142.555 276.577 184.698 211.741 237.591 221.003C204.049 213.464 178.677 234.789 169.432 233.065Z" fill="#FFC15F"/>
<path d="M419.278 170.383C419.278 168.014 417.558 165.86 415.193 165.86C413.043 165.86 411.108 167.798 411.108 170.383C411.108 172.753 412.828 174.907 415.193 174.907C417.343 174.691 419.278 172.753 419.278 170.383Z" fill="#FFDB9F"/>
<path d="M407.453 173.399C407.453 171.245 405.948 169.737 404.012 169.737C402.077 169.737 400.572 171.461 400.572 173.399C400.572 175.553 402.077 177.061 404.012 177.061C405.948 177.061 407.453 175.338 407.453 173.399Z" fill="#FFDB9F"/>
<path d="M416.913 140.227C416.913 137.642 415.193 135.704 413.043 135.704C410.893 135.704 409.173 137.858 409.173 140.227C409.173 142.812 410.893 144.751 413.043 144.751C415.193 144.966 416.913 142.812 416.913 140.227Z" fill="#FFDB9F"/>
<path d="M587.205 140.658C587.205 137.427 585.054 134.842 582.259 134.842C579.464 134.842 577.314 137.427 577.314 140.658C577.314 143.889 579.464 146.474 582.259 146.474C585.054 146.474 587.205 143.889 587.205 140.658Z" fill="#FFDB9F"/>
<path d="M590 152.936C590 150.782 588.495 149.274 586.775 149.274C585.054 149.274 583.549 150.997 583.549 152.936C583.549 155.09 585.054 156.598 586.775 156.598C588.495 156.598 590 154.874 590 152.936Z" fill="#FFDB9F"/>
<path d="M536.031 108.563C536.031 105.763 534.096 103.393 531.731 103.393C529.366 103.393 527.431 105.763 527.431 108.563C527.431 111.363 529.366 113.733 531.731 113.733C534.096 113.517 536.031 111.363 536.031 108.563Z" fill="#FFDB9F"/>
<path d="M310.266 180.938C310.266 178.138 308.331 175.769 305.966 175.769C303.601 175.769 301.666 178.138 301.666 180.938C301.666 183.738 303.601 186.108 305.966 186.108C308.331 186.108 310.266 183.738 310.266 180.938Z" fill="#FFDB9F"/>
<path d="M262.533 177.276C262.318 174.476 260.168 172.537 257.802 172.753C255.437 172.968 253.717 175.553 254.147 178.353C254.362 181.154 256.512 183.092 258.877 182.877C261.243 182.661 262.748 180.077 262.533 177.276Z" fill="#FFDB9F"/>
<path d="M250.277 185.892C250.062 183.523 248.126 182.015 245.761 182.231C243.611 182.446 241.891 184.6 242.106 186.969C242.321 189.339 244.256 190.847 246.621 190.631C248.987 190.201 250.492 188.262 250.277 185.892Z" fill="#C4B09D"/>
<path d="M239.956 179.43C239.741 176.846 237.806 175.122 235.656 175.338C233.506 175.553 232.001 177.923 232.216 180.507C232.431 183.092 234.366 184.815 236.516 184.6C238.666 184.169 240.171 182.015 239.956 179.43Z" fill="#FFDB9F"/>
<path d="M226.84 192.57C226.625 189.985 224.475 188.262 222.325 188.477C220.175 188.693 218.455 191.062 218.885 193.647C219.1 196.232 221.25 197.955 223.4 197.739C225.55 197.524 227.055 195.155 226.84 192.57Z" fill="#C4B09D"/>
</svg>
