<svg width="46" height="46" viewBox="0 0 46 46" fill="none" xmlns="http://www.w3.org/2000/svg">
<path d="M39.17 0H6.82983C6.08557 0 5.48218 0.603391 5.48218 1.34766V44.6523C5.48218 45.3966 6.08557 46 6.82983 46H39.17C39.9143 46 40.5176 45.3966 40.5176 44.6523V1.34766C40.5176 0.603391 39.9143 0 39.17 0ZM37.8223 43.3047H8.17749V2.69531H37.8223V43.3047Z" fill="#AB1F24"/>
<path d="M22.7432 16.2612C22.7432 17.0055 23.3466 17.6089 24.0908 17.6089H32.0056C32.7499 17.6089 33.3533 17.0055 33.3533 16.2612C33.3533 15.517 32.7499 14.9136 32.0056 14.9136H24.0908C23.3465 14.9136 22.7432 15.517 22.7432 16.2612Z" fill="#AB1F24"/>
<path d="M32.0054 20.3047H24.0906C23.3463 20.3047 22.7429 20.9081 22.7429 21.6523C22.7429 22.3966 23.3463 23 24.0906 23H32.0054C32.7496 23 33.353 22.3966 33.353 21.6523C33.353 20.9081 32.7497 20.3047 32.0054 20.3047Z" fill="#AB1F24"/>
<path d="M32.0054 25.6956H24.0906C23.3463 25.6956 22.7429 26.2989 22.7429 27.0432C22.7429 27.7875 23.3463 28.3909 24.0906 28.3909H32.0054C32.7496 28.3909 33.353 27.7875 33.353 27.0432C33.353 26.2989 32.7497 25.6956 32.0054 25.6956Z" fill="#AB1F24"/>
<path d="M32.0054 31.0867H24.0906C23.3463 31.0867 22.7429 31.6901 22.7429 32.4343C22.7429 33.1786 23.3463 33.782 24.0906 33.782H32.0054C32.7496 33.782 33.353 33.1786 33.353 32.4343C33.353 31.6901 32.7497 31.0867 32.0054 31.0867Z" fill="#AB1F24"/>
<path d="M32.0053 36.4775H28.583C27.8387 36.4775 27.2354 37.0809 27.2354 37.8252C27.2354 38.5695 27.8387 39.1729 28.583 39.1729H32.0053C32.7496 39.1729 33.353 38.5695 33.353 37.8252C33.353 37.0809 32.7497 36.4775 32.0053 36.4775Z" fill="#AB1F24"/>
<path d="M14.0178 17.6089H16.8943C17.6385 17.6089 18.2419 17.0055 18.2419 16.2612C18.2419 15.517 17.6385 14.9136 16.8943 14.9136H14.0178C13.2736 14.9136 12.6702 15.517 12.6702 16.2612C12.6702 17.0055 13.2736 17.6089 14.0178 17.6089Z" fill="#AB1F24"/>
<path d="M29.1292 9.52246H32.0056C32.7499 9.52246 33.3532 8.91907 33.3532 8.1748C33.3532 7.43054 32.7499 6.82715 32.0056 6.82715H29.1292C28.3849 6.82715 27.7815 7.43054 27.7815 8.1748C27.7815 8.91907 28.3849 9.52246 29.1292 9.52246Z" fill="#AB1F24"/>
<path d="M14.0178 9.52246H22.2852C23.0294 9.52246 23.6328 8.91907 23.6328 8.1748C23.6328 7.43054 23.0294 6.82715 22.2852 6.82715H14.0178C13.2736 6.82715 12.6702 7.43054 12.6702 8.1748C12.6702 8.91907 13.2736 9.52246 14.0178 9.52246Z" fill="#AB1F24"/>
<path d="M14.0178 23H16.8943C17.6385 23 18.2419 22.3966 18.2419 21.6523C18.2419 20.9081 17.6385 20.3047 16.8943 20.3047H14.0178C13.2736 20.3047 12.6702 20.9081 12.6702 21.6523C12.6702 22.3966 13.2736 23 14.0178 23Z" fill="#AB1F24"/>
<path d="M14.0178 33.782H16.8943C17.6385 33.782 18.2419 33.1786 18.2419 32.4343C18.2419 31.6901 17.6385 31.0867 16.8943 31.0867H14.0178C13.2736 31.0867 12.6702 31.6901 12.6702 32.4343C12.6702 33.1786 13.2736 33.782 14.0178 33.782Z" fill="#AB1F24"/>
<path d="M14.0178 28.3909H16.8943C17.6385 28.3909 18.2419 27.7875 18.2419 27.0432C18.2419 26.2989 17.6385 25.6956 16.8943 25.6956H14.0178C13.2736 25.6956 12.6702 26.2989 12.6702 27.0432C12.6702 27.7875 13.2736 28.3909 14.0178 28.3909Z" fill="#AB1F24"/>
</svg>
