<svg width="46" height="46" viewBox="0 0 46 46" fill="none" xmlns="http://www.w3.org/2000/svg">
<g clip-path="url(#clip0_1241_3117)">
<path d="M45.8895 44.1143L37.7723 25.1762C37.5589 24.6789 37.0697 24.3564 36.5289 24.3564H31.3737C33.4601 20.7114 35.1759 16.6772 35.1759 13.2639C35.1759 -4.31391 10.8241 -4.52835 10.8241 13.2639C10.8241 16.6772 12.5399 20.7114 14.6263 24.3564H9.47114C8.92997 24.3564 8.44075 24.6789 8.22772 25.1762L0.110545 44.1143C-0.271291 45.005 0.382884 46 1.35397 46H44.646C45.615 46 46.272 45.0071 45.8895 44.1143ZM35.6364 27.0619L39.6418 36.4064C39.5165 36.4716 26.48 43.2412 26.3867 43.2945H23.5549C23.4833 43.2145 24.0918 43.8262 15.2745 35.0099L20.172 32.5034C21.1705 33.7777 21.8699 34.5874 21.9791 34.713C22.5181 35.3335 23.4822 35.3325 24.0206 34.713C24.2469 34.4526 27.0047 31.2572 29.7214 27.0619H35.6364ZM23 2.7125C27.561 2.7125 32.4701 6.01461 32.4701 13.2639C32.4701 19.3592 25.6374 28.4303 23 31.704C20.3626 28.4299 13.5299 19.3592 13.5299 13.2639C13.5299 5.9753 18.286 2.7125 23 2.7125ZM10.3633 27.0619C16.9169 27.0619 16.1722 27.063 16.2772 27.0598C17.0391 28.2365 17.8042 29.3347 18.5159 30.3117L6.28801 36.5699L10.3633 27.0619ZM4.61923 40.4634L12.7438 36.3053L19.734 43.2945H3.40564L4.61923 40.4634ZM32.2504 43.2945L40.7108 38.8999L42.5944 43.2945H32.2504Z" fill="#AB1F24"/>
<path d="M27.0583 12.1819C27.0583 9.94428 25.2376 8.12354 22.9999 8.12354C20.7619 8.12354 18.9412 9.94428 18.9412 12.1819C18.9412 14.4196 20.7619 16.24 22.9999 16.24C25.2376 16.24 27.0583 14.4196 27.0583 12.1819ZM21.647 12.1819C21.647 11.4358 22.2538 10.829 22.9999 10.829C23.7457 10.829 24.3528 11.4358 24.3528 12.1819C24.3528 12.9277 23.7457 13.5345 22.9999 13.5345C22.2538 13.5345 21.647 12.9277 21.647 12.1819Z" fill="#AB1F24"/>
</g>
<defs>
<clipPath id="clip0_1241_3117">
<rect width="46" height="46" fill="white"/>
</clipPath>
</defs>
</svg>
