<svg width="46" height="46" viewBox="0 0 46 46" fill="none" xmlns="http://www.w3.org/2000/svg">
<path d="M41.957 5.48047H4.04297C1.81368 5.48047 0 7.29414 0 9.52344V36.4766C0 38.7059 1.81368 40.5195 4.04297 40.5195H41.957C44.1863 40.5195 46 38.7059 46 36.4766V9.52344C46 7.29414 44.1863 5.48047 41.957 5.48047ZM43.3047 36.4766C43.3047 37.2197 42.7001 37.8242 41.957 37.8242H4.04297C3.29987 37.8242 2.69531 37.2197 2.69531 36.4766V9.52344C2.69531 8.78034 3.29987 8.17578 4.04297 8.17578H41.957C42.7001 8.17578 43.3047 8.78034 43.3047 9.52344V36.4766Z" fill="#AB1F24"/>
<path d="M17.6094 10.8711C10.9179 10.8711 5.39062 16.3 5.39062 23C5.39062 29.6908 10.9094 35.1289 17.6094 35.1289C24.2958 35.1289 29.7383 29.6868 29.7383 23C29.7383 16.3121 24.2973 10.8711 17.6094 10.8711ZM17.6094 32.4336C15.4049 32.4336 13.3732 31.6875 11.7574 30.4374C12.9459 28.3502 15.1562 27.043 17.6094 27.043C20.0509 27.043 22.2519 28.3376 23.4444 30.4074C21.8377 31.6757 19.8105 32.4336 17.6094 32.4336ZM14.9141 21.6523C14.9141 20.1661 16.1232 18.957 17.6094 18.957C19.0956 18.957 20.3047 20.1661 20.3047 21.6523C20.3047 23.1385 19.0956 24.3477 17.6094 24.3477C16.1232 24.3477 14.9141 23.1385 14.9141 21.6523ZM25.3515 28.3834C24.401 27.0146 23.1141 25.9362 21.6286 25.2396C22.4807 24.2859 23 23.0288 23 21.6523C23 18.68 20.5818 16.2617 17.6094 16.2617C14.637 16.2617 12.2188 18.68 12.2188 21.6523C12.2188 23.0288 12.738 24.2859 13.5902 25.2396C12.0855 25.9452 10.7852 27.0431 9.83124 28.4373C8.73245 26.8994 8.08594 25.0232 8.08594 23C8.08594 17.7983 12.3581 13.5664 17.6094 13.5664C22.8111 13.5664 27.043 17.7983 27.043 23C27.043 24.9997 26.417 26.8557 25.3515 28.3834Z" fill="#AB1F24"/>
<path d="M39.2617 13.5664H33.7812C33.037 13.5664 32.4336 14.1698 32.4336 14.9141C32.4336 15.6583 33.037 16.2617 33.7812 16.2617H39.2617C40.006 16.2617 40.6094 15.6583 40.6094 14.9141C40.6094 14.1698 40.006 13.5664 39.2617 13.5664Z" fill="#AB1F24"/>
<path d="M39.2617 18.957H33.7812C33.037 18.957 32.4336 19.5604 32.4336 20.3047C32.4336 21.049 33.037 21.6523 33.7812 21.6523H39.2617C40.006 21.6523 40.6094 21.049 40.6094 20.3047C40.6094 19.5604 40.006 18.957 39.2617 18.957Z" fill="#AB1F24"/>
<path d="M39.2617 24.3477H33.7812C33.037 24.3477 32.4336 24.951 32.4336 25.6953C32.4336 26.4396 33.037 27.043 33.7812 27.043H39.2617C40.006 27.043 40.6094 26.4396 40.6094 25.6953C40.6094 24.951 40.006 24.3477 39.2617 24.3477Z" fill="#AB1F24"/>
<path d="M39.2617 29.7383H33.7812C33.037 29.7383 32.4336 30.3417 32.4336 31.0859C32.4336 31.8302 33.037 32.4336 33.7812 32.4336H39.2617C40.006 32.4336 40.6094 31.8302 40.6094 31.0859C40.6094 30.3417 40.006 29.7383 39.2617 29.7383Z" fill="#AB1F24"/>
</svg>
