<svg width="20" height="20" viewBox="0 0 20 20" fill="none" xmlns="http://www.w3.org/2000/svg">
<g clip-path="url(#clip0_285_7940)">
<path fill-rule="evenodd" clip-rule="evenodd" d="M18.7557 11.257C19.0632 10.8565 19.375 10.4506 19.375 10C19.375 9.54943 19.0632 9.14346 18.7557 8.74302C18.5172 8.43247 18.2813 8.12525 18.1953 7.80312C18.1051 7.46444 18.1564 7.06656 18.2074 6.67042C18.2713 6.17473 18.3348 5.68177 18.1203 5.31094C17.9013 4.93218 17.4365 4.73962 16.9731 4.54759C16.6068 4.39582 16.2412 4.24437 15.9984 4.00156C15.7556 3.75876 15.6042 3.39324 15.4524 3.02693C15.2604 2.56347 15.0678 2.09874 14.6891 1.87969C14.3182 1.66518 13.8253 1.72871 13.3296 1.79259C12.9334 1.84364 12.5356 1.89491 12.1969 1.80469C11.8747 1.7187 11.5675 1.48276 11.257 1.24428C10.8565 0.936762 10.4506 0.625 10 0.625C9.54943 0.625 9.14346 0.936762 8.74302 1.24428C8.43247 1.48276 8.12525 1.7187 7.80312 1.80469C7.46444 1.89491 7.06656 1.84364 6.67042 1.79259C6.17473 1.72871 5.68177 1.66518 5.31094 1.87969C4.93218 2.09874 4.73962 2.56347 4.54759 3.02693C4.39582 3.39324 4.24437 3.75876 4.00156 4.00156C3.75876 4.24437 3.39324 4.39582 3.02693 4.54759C2.56347 4.73962 2.09874 4.93218 1.87969 5.31094C1.66518 5.68177 1.72871 6.17473 1.79259 6.67042C1.84364 7.06656 1.89491 7.46444 1.80469 7.80312C1.7187 8.12525 1.48276 8.43247 1.24428 8.74302C0.936762 9.14346 0.625 9.54943 0.625 10C0.625 10.4506 0.936762 10.8565 1.24428 11.257C1.48276 11.5675 1.7187 11.8747 1.80469 12.1969C1.89491 12.5356 1.84364 12.9334 1.79259 13.3296C1.72871 13.8253 1.66518 14.3182 1.87969 14.6891C2.09874 15.0678 2.56347 15.2604 3.02693 15.4524C3.39324 15.6042 3.75876 15.7556 4.00156 15.9984C4.24437 16.2412 4.39582 16.6068 4.54759 16.9731C4.73962 17.4365 4.93218 17.9013 5.31094 18.1203C5.68177 18.3348 6.17473 18.2713 6.67042 18.2074C7.06656 18.1564 7.46444 18.1051 7.80312 18.1953C8.12525 18.2813 8.43247 18.5172 8.74302 18.7557C9.14346 19.0632 9.54943 19.375 10 19.375C10.4506 19.375 10.8565 19.0632 11.257 18.7557C11.5675 18.5172 11.8747 18.2813 12.1969 18.1953C12.5356 18.1051 12.9334 18.1564 13.3296 18.2074C13.8253 18.2713 14.3182 18.3348 14.6891 18.1203C15.0678 17.9013 15.2604 17.4365 15.4524 16.9731C15.6042 16.6068 15.7556 16.2412 15.9984 15.9984C16.2412 15.7556 16.6068 15.6042 16.9731 15.4524C17.4365 15.2604 17.9013 15.0678 18.1203 14.6891C18.3348 14.3182 18.2713 13.8253 18.2074 13.3296C18.1564 12.9334 18.1051 12.5356 18.1953 12.1969C18.2813 11.8747 18.5172 11.5675 18.7557 11.257ZM9.14053 10.775L12.7093 7.2062C13.1108 6.80464 13.7608 6.80464 14.1624 7.2062C14.564 7.60776 14.564 8.25933 14.1624 8.66089L9.84678 12.9765C9.45615 13.3671 8.82178 13.3671 8.43115 12.9765L5.83584 10.3812C5.43428 9.97964 5.43428 9.32808 5.83584 8.92651C6.2374 8.52495 6.88897 8.52495 7.29053 8.92651L9.14053 10.775Z" fill="#00B151"/>
</g>
<defs>
<clipPath id="clip0_285_7940">
<rect width="20" height="20" fill="white"/>
</clipPath>
</defs>
</svg>
